<?xml version="1.0" encoding="utf-8"?>
<!-- Generator: Adobe Illustrator 21.1.0, SVG Export Plug-In . SVG Version: 6.00 Build 0)  -->
<svg version="1.1" id="Capa_1" xmlns="http://www.w3.org/2000/svg" xmlns:xlink="http://www.w3.org/1999/xlink" x="0px" y="0px"
	 viewBox="0 0 350 350" style="enable-background:new 0 0 350 350;" xml:space="preserve">
<style type="text/css">
	.st0{fill:none;stroke:#4D4D4D;stroke-width:15;stroke-miterlimit:10;}
</style>
<g>
	<path class="st0" d="M175.1,168c36.3,0,65.8-35.8,65.8-79.9s-9.7-79.9-65.8-79.9s-65.8,35.8-65.8,79.9S138.8,168,175.1,168z"/>
	<path class="st0" d="M299.2,293.6c-1.2-76.9-11.3-98.8-88.2-112.7c0,0-10.8,13.8-36,13.8s-36-13.8-36-13.8
		c-76,13.7-86.7,35.3-88.1,110.2c-0.1,6.1-0.2,9.5-0.2,13.8c0,0,18.3,36.9,124.3,36.9s124.3-36.9,124.3-36.9
		C299.3,302.1,299.3,298.6,299.2,293.6z"/>
</g>
</svg>
