<?xml version="1.0" encoding="utf-8"?>
<!-- Generator: Adobe Illustrator 21.1.0, SVG Export Plug-In . SVG Version: 6.00 Build 0)  -->
<svg version="1.1" id="Layer_1" xmlns="http://www.w3.org/2000/svg" xmlns:xlink="http://www.w3.org/1999/xlink" x="0px" y="0px"
	 viewBox="0 0 738.7 888.4" style="enable-background:new 0 0 738.7 888.4;" xml:space="preserve">
<style type="text/css">
	.st0{fill-rule:evenodd;clip-rule:evenodd;fill:#C8020D;}
</style>
<path class="st0" d="M368.2,143.9c-0.2-0.3-0.2-0.2-0.4-0.7c-0.9-2.7-0.6-5.3-1.5-7.8l-4.1-22.2c-0.9-2-0.1-3-0.7-4.9
	c-0.7-2.4-0.6,0.1-0.9-4.2l-1.7-8.8c-0.4-1.6-0.2-3.5-0.5-5.2l-0.8-4.4c-0.6-1.9-0.3,0.4-0.7-1.7c-0.1-0.7-0.1-1.8-0.2-2.5l-3.2-18
	c-0.5-2-0.6-1.7-0.8-4.3c-0.2-3.5-0.9-1-1-4.4l-2.2-13.6c-0.6-2.3-0.7-1.6-0.9-4.6l-6.4-35.9c-1.1-0.4-0.8-0.4-2.2-0.4L164,0.4
	c-0.3,1.5-0.3,2-0.5,3.6l-5.1,27.6c-1.2,3.9-2.1,9.3-2.7,13.6c-0.2,1.1-0.7,2.1-0.8,3.1c-0.2,1.3-0.1,2.6-0.3,3.9
	c-0.2,1.2-0.6,2.1-0.9,3.5c-0.4,2.6-0.9,4.6-1,7.3c-0.2,3.1-0.4,1.1-0.9,3c-0.3,1.1-0.3,2.3-0.6,3.5c-1.7,7-2.6,13.7-3.7,20.9
	L146,97c-0.6,2.6-1.2,8.8-1.8,10.5c-1.1,3.3-2.2,13.4-3.2,17.6c-0.3,1.2-0.2,2.4-0.5,3.7l-8.7,44.6c-0.3,1.3-0.2,2.5-0.4,3.8
	c-0.2,1.1-0.5,1.8-0.8,3.3l-2.6,13.7c-0.4,1.6-0.3,2.2-0.4,3.9c-0.1,2-0.5,1.5-0.9,3c-0.3,1.3-0.1,2.5-0.4,3.8
	c-0.9,3.3-0.8,5-1.4,6.6c-0.8,2-1.1,7.4-2.1,10.5c-0.5,1.4-0.3,2-0.6,3.4c-0.2,1.3-0.4,2-0.7,3.4c-0.4,2.1-0.8,4.4-1.2,7
	c-0.7,4.5-1.7,9-2.6,13.9c-0.8,4.9-1.6,8.8-2.4,13.9c-0.2,1.2-0.7,1.9-0.8,3.1c-0.2,1.6-0.2,2.1-0.6,3.6c-0.3,1.4-0.3,2.1-0.4,3.8
	c-0.2,2.5-0.6,1.2-0.9,3.3c-0.2,1.5,0,2.2-0.4,3.7c-1.5,4.6-2.2,11.9-3.4,16.9c-0.3,1.3-0.2,2.5-0.5,3.7c-0.6,2.4-1.3,7.3-2.1,10
	l-3.6,21.3c-0.2,2-0.5,1.8-0.8,3.4c-0.2,1.3,0,2.6-0.3,3.9c-0.3,1.3-0.7,0.8-0.9,3.2c-0.2,3.4-0.5,0.8-1.1,7.1
	c-0.2,2.3-0.6,1.1-0.8,3.3c-0.2,1.8,0.3,1.9-0.6,3.4c-0.9,1.5-2.3,11.3-2.6,13.7c-0.2,1.4-0.7,2-0.9,3.1c-0.2,1.3,0,2.5-0.4,3.8
	c-0.4,1.6-0.6,1-0.8,3.1c-0.4,4.9-2,9.2-2.7,14c-0.2,1.3-0.2,2.6-0.4,3.8l-2,10.2c-0.5,2.2-1.1,5-1.5,7l-1.2,7.1
	c-0.4,2.5-0.9,4.3-1.2,6.9c-0.7,6.8-3.4,14.6-3.8,21.2c-0.2,3.1-2.1,9.8-2.8,13.4c-0.2,1.1-0.3,2.5-0.5,3.6l-2.1,10.1
	c-1,4.5-1.3,9.4-2.4,14l-2.4,14.4c-1.3,6.9-2.9,13.7-3.8,20.8c-0.3,2.1-0.5,1.5-0.9,3c-0.3,1.2-0.2,2.6-0.4,3.8
	c-0.2,1.1-0.6,2.1-0.7,3.4l-1.1,7c-0.2,2.1-0.6,0.9-0.9,3c-0.4,3-0.7,4.8-1,7.7c-0.2,1.8-0.7,1.4-0.9,3c-0.5,3-1,7.4-1.9,10.3
	c-1.9,6-2.8,17.7-4.5,24L50.6,614c-0.2,1.6-0.5,1.8-0.8,3.2l-2.4,14c-0.4,1.7-0.4,5.7-1.1,7.1c-1.3,2.3-1.1,8-1.9,10.4
	c-1.8,5.7-2.5,11.3-3.6,17.1L39,676.2c-0.4,1.3-0.2,2.2-0.5,3.6l-1.4,6.6c-1.3,4.4-1.2,9.4-2.7,13.6c-1.2,3.3-3.5,23-4.2,24.8
	c-0.6,1.7-0.4,1.9-0.5,3.8c-0.2,3.2-0.4-0.1-1,2.9l-1.1,7.2c-0.3,2.3-0.5,1.6-0.9,3l-1.1,7.2c-0.1,1.5-0.5,1.7-0.8,3.2l-0.8,5.2
	c-0.3,1-0.2,0.6-0.4,2l-1.1,7.1c-0.2,2.1-0.6,0.8-0.8,3.3c-0.4,5.3-0.7,2.1-1.1,5.2c-0.3,3.3-0.6,3-1,5.3c-0.2,1.4,0.1,2.3-0.4,3.6
	l-0.7,3.4c-0.1,1.7-0.6,1.7-0.9,3c-0.4,1.9-0.2,3.6-0.8,5.1l-4.2,22.6c-0.2,3-0.9,4.2-1.1,7.1c-0.2,2.5-0.5,1.2-0.8,3.3l-1.1,7.4
	c-0.1,1.4-0.5,1.7-0.9,3.1l-1.3,6.8c-0.4,2.9-1.1,4.3-1.5,6.6c-0.5,2.6-0.6,4.9-1.2,7.5c-1,4.5-1.7,9.5-2.3,14.2
	c-0.2,1.2-0.6,2.1-0.8,3.4c-0.2,1.5,0.2,2.3-0.4,3.5c-0.4,0.8-0.2-0.4-0.6,1.3c-0.2,0.7-0.1,1.5-0.1,2.2c-0.1,1.9-0.6,2-0.7,3.9
	l738.6,0c0.2-3.5-2.6-20.4-3.8-25.3c-0.2-1-0.8-2.2-0.9-2.9c-0.5-2.1-1.4-11.6-2.3-14.1c-1.5-4-0.3-3-1.6-6.4
	c-0.4-1.1-0.2-2.4-0.3-3.7c-0.1-1.3-0.6-2.5-0.8-3.7l-4.2-24.4c-0.1-1.1-0.6-2.4-0.7-3.5l-1.2-7c-0.2-2.1-0.6-1.7-0.9-3.1
	c-0.3-1.2-0.1-2.5-0.4-3.8c-0.5-2.2-0.9-4.5-1.5-6.5c-0.4-1.3-0.2-2.2-0.4-3.7c-0.2-1.4-0.7-1.6-0.9-3.4l-6-34.8
	c-0.3-3.3-0.7-0.8-1-3c-0.2-1.3,0.1-2.4-0.2-4l-5-28.1c-1.1-3.4-0.6-7-2-10.2c-1-2.3-0.4-3-1.4-6.6c-0.3-1-0.2-2.4-0.3-3.7
	c-0.1-1.3-0.6-2.3-0.7-3.5l-1.2-7c-0.2-2.2-0.5-1.4-0.8-3.3c-0.2-1-0.2-2.5-0.4-3.7c-1.4-8.2-3.4-16.3-4.5-24.6l-3.6-20.9
	c-1-4.3-2-9.4-2.6-14.2c-0.3-2.4-0.6-4.2-1.5-6.4c-0.7-1.6-0.5-1.3-0.6-3.3c-0.1-2.3-0.4-1.9-0.7-3.4c-0.2-1.2-0.1-2.8-0.3-3.9
	c-0.4-1.8-0.7-0.5-0.9-3c-0.3-5.1-1.4-9.4-2.2-14.3l-2-10.2c-0.5-2.1-0.7-5-1.4-6.8c-0.6-1.4-0.3-2.3-0.5-3.9
	c-0.2-1.3-0.7-2-0.8-3.1l-1.3-11.3c-0.4-1.8-1.2-3.9-1.6-6.5c-0.8-6-2.5-11.6-3-17.4c-0.1-1.3-0.6-1.9-1-2.9
	c-0.3-1.1-0.2-2.5-0.4-3.8l-3.8-21.2c-0.3-2.3-0.5-1.5-0.9-3.1c-0.2-1-0.2-2.9-0.3-4c-0.2-2.2-0.4-1.7-0.7-3.3
	c-0.5-2.4-1-5.1-1.2-7.4c-0.2-2.6-0.1-1.4-0.7-3.1c-0.4-1.2-0.2-2.4-0.5-3.7l-1.4-6.7c-0.5-2.2-1-4.3-1.3-6.8
	c-0.2-1.4-0.5-1.7-0.8-3.2c-0.7-3.6-0.9-7.3-1.8-10.8l-1.3-6.7c-0.1-2.1-0.1-1.9-0.6-3.5c-0.5-1.6-0.2-1.9-0.5-3.6
	c-0.3-2.4-0.8-0.6-1-2.9c-0.1-1.4,0-2.5-0.3-4c-0.2-1.3-0.5-2-0.7-3.4c-0.3-2.7-0.6-1.6-0.9-3c-0.3-1.1-0.1-2.5-0.4-3.8
	c-0.8-3.4-1.6-7.1-1.8-10.6c-0.2-2.9-3.1-16.2-3.8-21.1c-0.4-2.7-0.8-4.2-1.2-7c-0.6-4.5-2-9.1-2.7-13.5l-3.5-21.5
	c-0.3-2-1.3-4.6-1.6-6.4l-3.8-20.7c-0.4-1.4-0.2-2.3-0.4-3.7c-0.2-1-0.7-1.9-0.8-3.2c-0.3-2,0-1.9-0.7-3.5c-0.7-1.7-0.3-1.6-0.5-3.5
	c-0.3-2.7-0.8-1.1-1-3c-0.2-1.2,0.1-2.7-0.2-4c-0.4-1.8-0.6-0.7-0.8-3.3c-0.1-2.6-0.3-1.8-0.8-3.7c-0.4-1.3-0.2-2.4-0.3-3.8
	l-1.5-6.7c-0.5-1.4-0.2-2.1-0.4-3.7c-0.4-3.1-0.7-0.3-1-2.9c-0.2-1.8,0.1-2.1-0.4-3.8l-3.6-21.1c-0.3-4.4-2.1-9.3-2.8-13.8
	c-0.2-1.2-0.1-2.7-0.4-3.6c-1.2-4-1.8-9.3-2.6-13.1c-0.3-1.3-0.2-2.5-0.5-3.7l-3.8-20.7c-0.3-2.4-0.8-4.7-1.1-7.1l-1.4-7.1
	c-0.9-4.7-1.7-9.1-2.5-13.8c-0.8-4.5-1.3-9.3-2.4-13.9c-1.4-5.7-1.7-8.5-2.6-13.7c-0.4-1.9-0.7-0.5-0.9-3l-1.1-7.1
	c-0.3-3.4-0.7-1.4-1-3.4c-0.2-1.4,0.1-2.4-0.3-3.9c-1-3.7-2-14-3.2-17.2l-3.5-21.1c-0.5-1.9-0.7,0.1-0.9-3c-0.1-2.1-0.2-2-0.6-3.5
	c-0.7-2.3-0.4-5.1-1-7.7c-1.2-4.5-1.9-9.2-2.5-13.8c-0.4-2.4-0.9-4.5-1.5-6.6c-0.4-1.3-0.2-2.3-0.5-3.7L579,5.4
	C578.3,2.6,579.9,0,576,0H403.5c-2.9,0-2.6,0.9-3.8,7.3c-1,5.8-3.4,12.8-4.1,18.2c-0.3,2.4-0.7,2.3-1.1,4.5
	c-0.3,2.1-0.6,2.5-0.9,4.7c-0.3,1.8-0.9,2.7-1,4.5c-0.2,2.2-2.4,10-3.1,13.6c-0.2,1-0.4,1.1-0.6,2c-0.3,1-0.2,1.5-0.4,2.5
	c-0.4,1.9-1.4,4.1-1.8,6.2l-2.7,11.9c-0.9,3-0.8,6.6-1.8,9.5c-0.3,0.8,0.1-0.5-0.3,0.8c-0.8,2.6-0.8,5.4-1.8,8.1
	c-0.7,1.9-0.4,3.4-1.1,5.2c0,0.1-0.1,0.2-0.1,0.3c-0.2,0.7-0.1,0.4-0.3,1.2l-1.7,7.2c-0.7,3-0.9,6.2-2,9.1l-4.3,20.7
	c-0.3,1.1-0.5,0.4-0.8,2.1C369.5,140.9,369.6,142.9,368.2,143.9L368.2,143.9z M135.9,222.9c1.1-0.6,0.8-0.4,1.5-1.4
	c1.1,10.5,3.6,20.6,5.3,31.1l3.1,18c0.5,2.4,0.5,0.3,1,4.8c0.1,0.7,0,0.6,0.2,1.3c0.9,3.2,1.5,10.4,2.1,11.7
	c0.8,1.8,0.5,3.2,0.8,5.1c0.6,3.5,1.4,6.9,1.7,10.3c0.2,2.7,0.3,1.1,0.8,2.4c0.3,0.8,0.2,1.8,0.3,2.7c0.2,2,0.8,3.2,1,4.9
	c0.3,2.8,0.9,2.3,1.1,4.8c0.1,1-0.1,1.9,0.2,2.9c0.3,1.4,0.4,0.5,0.6,2.3c0.6,5.4,0.6,3.1,1,5.3c0.2,0.9,0,2,0.2,2.9
	c0.3,2.1,0.3,0.5,0.6,2.3l5.3,30.7c0.1,3.4,1.4,6.9,1.8,10.1l3.2,17.8c0.1,2.3-0.2,1.2,0.5,2.7c0.6,1.3,0.5-0.2,0.6,2.1
	c0.1,3.1,0.7,4.7,1,8.2c0.3,4.3,3.5,17.7,3.8,20.4c0.3,3.6,1.2,7.3,1.8,10.5c0.6,3.2,1,7,1.9,9.9c0.4,1.4,0.4,3.7,0.7,5.3
	c0.3,1.4,0.6,3.5,1,4.9l2.7,15.5c0.2,3.1,0.9,1.9,1,4.8c0.1,2.9,0.6,3.2,0.8,5.2l2.6,15.7c0.8,3.4,1.3,6.7,1.7,10.3
	c0.2,1.8,0.3,1,0.6,2.6c0.7,3.6,2.1,8.8,2.3,12.2c0.2,2.2,0.7,2.4,0.9,5.2c0.2,3.8,1.8,7.6,2,9.7c0.2,2.3,0.2,3.1,0.7,5.4l0.6,3.8
	c1.3,4.4,1.8,13.8,2.9,16.9c0.5,1.6,0.5-0.1,0.7,2.1c0.4,4.2,0.9,3.5,1,5.2c0.1,0.9,0,2.1,0.1,3c0.4,2.3,0.7,0.8,1,4.8l1.6,10.6
	c1.7,7,2.2,13.5,3.7,20.4l5.5,30.6c0.5,6.7,2.4,13.6,3.8,20.1l8.9,50.9c0.5,2.2,0.3,3.3,1.1,5.2c0.6,1.5,0.2,3.4,0.7,5.3l1.7,10.2
	c0.2,1.5,0.4,1.6,0.6,2.7l2.1,12.8c0.2,1.6,0.9,3.2,1.1,4.6c0.2,1.1,0,2.1,0.3,3.2l1,4.9c1,3.8,1.1,9.1,2.5,12.3
	c0.7,1.7,0.1,3.5,0.7,5.3c0.7,1.8,0.5-0.3,0.7,2.1l1,8.2c0.3,2.2,0.6,0.8,1,4.8l5.7,30.7c0.7,2.1-0.1,2.7,0.9,5.1
	c0.6,1.5,0.3,3.7,0.6,5.5l1.1,6.8c0.3,1.1,0-0.4,0.4,1.1c0.2,0.9,0.2,1.7,0.4,2.7c0.6,3.5,1.9,6.6,2.1,9.5c0.1,2.1,1.8,8.2,1.9,10
	c0.1,2.1,0.6,3.4,0.9,5c0.2,0.9,0.4,4.7,0.3,5.7l-236.9-0.1c-0.3-3.1,0.2-2.9,0.8-5.2c0.3-1.5,0.5-3.6,0.8-5.3
	c0.4-2.2,0.4-3.2,1-5.3c1.5-4.8,1.5-10.5,2.8-15.3c0.5-1.9,0.3-3.2,0.9-5l3-15c0.8-3.4,2.3-12,2.5-15.9l3.1-14.5
	c0.1-1.1,0.1-2.1,0.4-3.1c0.3-1.3,0.4-0.9,0.6-2.4l5.8-30.1c1.6-7.1,2.3-13.7,3.6-20.6c0.2-1.3,0.7-3.3,1-4.9
	c0.7-3.7,1.4-6.1,1.9-10.4c0.7-6.4,3-13.7,3.9-20.2l7.5-40.7c0.4-1.9,0.6-3.1,0.9-5.1l5.2-28.2c0.5-1.2,0.3-1.2,0.4-2.5l3.9-23.4
	c0.1-1.1,0.5-1.1,0.8-1.9c0.8-2.3,0.6-7.5,1.7-10.2c1.3-2.9,1.7-6.6,2.3-9.8c0.5-2.8,0.9-7.9,1.8-10.2c1.1-3,1-7.2,1.8-10.4
	c0.7-2.6,1.4-7.1,1.8-10.1c0.5-4.4,1.7-9.8,2.7-14.1l1.5-9.3c0.4-1.5,0.4-0.6,0.7-2.2c0.1-1,0-1.8,0.3-2.8c0.3-1,0.5-1,0.7-2.1
	c0.6-3.6,1-6.6,1.8-10.1c0.5-2.4,0-3.1,0.9-5.4l4-20.1c0.4-1.6,0.3-3.7,0.7-5.3c0.4-1.6,0.7-3.1,1.1-4.7c0.5-1.9,0.4-3.4,0.7-5.5
	c0.2-1.3,0.5-1.3,0.8-2.4l1.4-7.5c0.4-2.1,0.6-2.8,0.8-5.3c0.1-2,0.7-3,1-4.8c0.3-1.8,0.8-3.4,0.9-5.6c0.1-2.9,0.8-2.4,1-4.8
	c0.4-3.8,1.4-6.3,2-9.8c0.5-2.9,1-7.9,1.7-10.7c0.9-3.3,1-6.4,2-9.8c0.5-1.8,0.4-3.6,0.9-5.5c0.5-1.9,0.4-3.5,0.8-5.1l1.5-7.4
	c0.2-1,0.1-1.8,0.3-2.7c0.6-3,0.5-0.3,1-5.4c0.2-2.4,0.8-2.3,1-4.8c0.2-1.8,0.2-1.1,0.6-2.4c0.3-1.1,0.2-1.4,0.3-2.8
	c0.3-3.1,1.6-6.5,2.1-10.1c0.3-3,1.5-6.6,2-9.7l6.5-35.9c0.5-1.7,0.4-3.6,0.8-5.2l3.6-20.6c0.4-2.6,1.9-7,2.2-9.8
	c0.5-4.2,2.6-11.8,2.9-14.9c0.4-3.7,1.4-6.5,1.9-10.3l3.6-20.6C135.2,230.8,135.7,226.1,135.9,222.9L135.9,222.9z M259.2,875.3
	c-2,0-2.1,0.1-2.3-1.9l-1.1-7.1c-0.1-1.5-0.2-2.2-0.5-3.3c-0.5-1.8-1-4.9-1.3-6.8c-0.2-1.2-0.1-2.6-0.4-3.7
	c-0.7-2.7-1.1-7.2-2.2-9.5c-1.1-2.2-0.4-4.3-0.9-7l-3.7-20.4c-0.2-1.2-0.6-2-0.8-3.1c-0.2-1.4,0-2-0.4-3.3l-2.5-13.4
	c-0.4-2.7-0.6-4.7-1.1-7.2c-0.4-1.9-0.8-0.9-1.1-2.7c-0.2-1.1,0-2.6-0.2-3.7c-0.4-1.9-0.8-0.4-0.9-3l-1-7.4
	c-0.2-1.7-0.5-1.5-0.8-2.8c-0.3-1.2-0.1-2.4-0.4-3.7l-1.8-10.1c-0.3-3.3-1.8-7-2-10l-0.6-3.2c-0.7-2.5-1-8.6-1.8-10.5
	c-0.6-1.5-0.5-0.7-0.6-2.9c-0.1-2.5-0.3-1.7-0.8-3.3c-0.4-1.2-0.1-2.4-0.3-3.8c-0.2-1.3-0.7-1.7-0.8-3.3c-0.5-7.8-3.9-20.3-4.1-23.8
	c-0.1-2.7-0.5-4.8-1-7l-2.3-13.7c-0.3-1.7-1-4.1-1.4-6.2c-0.7-3.5-0.9-6.7-2-9.8c-0.4-1.1-0.1-2.4-0.4-3.7c-0.3-1.2-0.7-1.6-0.9-3.1
	c-0.1-1.4,0.1-2.1-0.3-3.5c-1.1-4-1.7-9.3-2.4-13.6l-1.2-6.9c-0.4-4.1-0.9-9.4-2.5-13.5c-0.6-1.5-0.3-1.8-0.5-3.6
	c-0.2-1.4-0.5-1.6-0.8-2.8c-0.3-1.2,0-2.6-0.4-3.8c-0.2-0.6-0.4-0.1-0.7-1.4c-0.1-0.5-0.1-1.2-0.1-1.7c-0.1-2.5-0.1-1.7-0.8-3.4
	c-0.5-1.2-0.2-2-0.3-3.3c-0.1-2.4-0.5-1.6-0.8-3.4c-0.5-3.2-0.7-7.2-1.9-10l-4.1-24.1c-0.2-3.5-1-3.9-1.1-6.7c-0.1-2-0.2-2-0.6-3.5
	c-0.3-1.2-0.3-2.4-0.5-3.6c-0.3-1.5-0.6-1.5-0.8-2.9c-0.5-3.8-0.7-7-1.7-10.6c-0.4-1.3-0.2-2-0.4-3.3c-0.2-1-0.5-1.9-0.7-3.3
	l-1.9-10c-0.8-3.2-2.1-13.7-2.8-15.4c-0.6-1.6-0.4-3-0.8-5.1l-1.8-10.1c-0.2-2.1-0.4-1.6-0.8-3.2c-0.4-1.5-0.8-5.4-1-6.9
	c-0.4-2.9-1.1-3.6-1.3-6.6c-0.2-1.9-0.4-2-0.7-3.5c-0.7-3.5-0.3-5.7-1.8-9.6c-0.6-1.5-0.5-4.6-1.1-6.8c-0.4-1.3-0.1-2.5-0.5-3.7
	c-0.5-1.7-0.7-0.3-0.8-3.1c-0.2-3.5-1.5-7.2-1.8-10c-0.2-1.4-0.1-2.5-0.4-3.9l-1.6-6.1c-0.4-1.1-0.1-2.6-0.3-3.8
	c-0.3-2.7-0.7-0.9-1-3c-0.2-1.9,0.2-2-0.4-3.8c-0.6-2-0.7-4.9-1.2-6.5c-0.4-1.3-0.1-2.4-0.4-3.7c-0.4-1.9-0.8-0.5-0.9-3
	c-0.1-1.4,0.1-2.2-0.3-3.6c-0.7-2.5-0.5-4.1-1.4-6.7c-0.4-1.2-0.1-2.4-0.4-3.7c-0.5-1.9-0.7-0.1-0.8-2.6l-0.2-3.3
	c0-0.1-0.1-0.2-0.1-0.3c-0.6-1.7-0.7,0-0.8-3.4l-1-7c-0.2-1.4-0.6-1.4-0.7-3.4l-1.7-10.2c-0.4-1.5-0.3-2.2-0.6-3.5
	c-0.4-1.8-0.7-0.5-0.9-3c-0.2-4.1-0.7-4.2-0.9-7.1c-0.4-5.3-2.6-14.7-3.8-20.3c-0.2-1.1-0.2-2.6-0.4-3.8c-0.2-1.2-0.7-1.3-0.8-2.7
	c-0.1-0.7,0-1.4-0.2-2.2c-0.5-2-0.1-0.1-0.6-1.2l-1.4-10.5c-0.3-1.5-0.6-2-0.8-3.2c-0.2-1.3-0.1-2.6-0.3-3.9
	c-0.2-1.2-0.5-1.6-0.7-3.3l-4.2-23.7c-0.3-1.5-0.6-1.9-0.8-3.2l-1-6.9c-0.2-1.3-0.6-1.6-0.8-3.1c-0.6-4.9-1.7-8.6-2.2-13.3
	c-0.3-2.4-0.7-1-1-3c-0.2-1.3,0-2.2-0.3-3.5c-1.2-6.4-3.5-14.9-1.2-21.2l1.4-6.3c0.2-1.3,0.1-2.7,0.4-3.8c0.4-2.2,0.7-0.1,0.9-3
	l3.4-20.6c0.6-1.6,0.4-1.7,0.6-3.5l4.6-23.1c0.5-2.4,0.5-4.7,1.1-7.2l3.1-16.6c0.2-1.2,0.1-2.5,0.2-3.6c0.2-1.8,0.7-1.3,0.9-3
	c0.2-1.2,0-2.7,0.3-4c0.7-3,0.3-4,1.4-6.2c1.3-2.6,1.8-10.3,2.5-13.5l9.8-53.9c0.4-4,1.6-9.8,2.4-13.5c0.4-1.9,0.4-5.7,0.9-7.1
	c0.5-1.4,0.3,0.2,0.6-1.4c0.4-2-0.3-3.3,2.5-3.3l153.6,0.1c0.7,2.3,0.9,4.1,1.4,6.8l5,26.8c0.9,2.7,2.2,14.5,3.1,16.9l1.2,6.6
	c0.2,1.3,0.2,2.5,0.4,3.8c0.2,1.3,0.6,2.3,0.8,3.2l1,6.9c0.2,1.2,0.6,2.1,0.8,3.1c0.9,5.3,2.1,16.1,3.7,20c0.9,2.1,0.5,4.2,1.2,6.6
	c0.3,1.2,0.2,2.3,0.4,3.7c0.3,2.1,0.7,0.9,0.9,2.6c0.2,1.6,0,2.2,0.4,3.8c0.3,1.1,0.6,2,0.7,3.3c0.2,2.7,0.7,4.1,1.1,6.8
	c0.2,1.4,0.6,2.3,0.8,3.3l1.6,10.4c0.5,2.4,0.6,4.8,1.2,7c0.3,1.1,0.3,2.4,0.6,3.5l0.7,2.9c0.2,1.4,0.5,2.1,0.8,3.3
	c0.3,1.2,0.1,2.3,0.4,3.4c0.4,2,0.7,0.5,0.9,3c0.2,2.5,0.9,4.3,1.1,6.7c0.1,1.3-0.1,0.9,0.4,1.9c0.8,1.8,0.4,2.9,0.8,5.1
	c0.2,1.4,0.6,1.3,0.7,3c0.3,2.9,0.8,4.3,1.1,7.1l1.1,6.8c0.2,1.5,0.6,1.9,0.8,3.2l0.7,3.3c0.5,1.3,0.2,2.2,0.4,3.7
	c0.2,1.3,0.5,1.5,0.8,2.9c0.3,1.3,0.1,2.4,0.4,3.8c0.2,1,0.5,1.6,0.8,2.9c0.4,2.4,0.9,4.6,1,6.8c0.1,1.6,0.3,2,0.6,3.5
	c0.3,1.3,0.2,2.4,0.4,3.7c0.3,1.9,0.8,4.3,1.3,6.3c0.4,1.5,0.4,2,0.6,3.5c0.3,2.4,0.7,1.2,0.9,3c0.4,2.5,0.3,4.8,0.8,7.2
	c0.5,2.6,1,4.1,1.3,6.8c0.1,1.6,0.5,1.9,0.8,3.2l1.5,10.5c0.4,2,0.7,4.6,1.3,6.3c1.1,3.1,1,7,1.9,10.4c0.4,1.3,0.2,1.9,0.4,3.3
	c0.2,1.4,0.7,1.6,0.9,3c0.2,1.4,0,2.4,0.4,3.8c0.8,2.5,1.3,7.5,1.7,10.2c0.2,1.4,0.5,1.4,0.8,3.2c0.5,3.1,0.8,7.2,1.7,10.2l1.4,6.3
	c0.5,4,1.3,9.9,2.3,13.8c0.3,1.1,0.6,1.6,0.7,2.9l6,33.7c0.3,2.8,0.8,4.2,1.1,6.7c0.3,2.5,0.6,1.5,0.9,3c0.2,1.1,0.1,2.6,0.3,3.9
	l1.8,10c0.3,1.7,0.7,1.2,0.9,3c0.2,1.6-0.1,2.3,0.5,3.8c0.6,1.4,0.6,0.6,0.6,2.9c0.2,5,1.3,8.8,2.3,13.7l1.7,10.4
	c0.2,0.9,0.5,1.8,0.7,2.9c0.3,1.6,0.1,2,0.7,3.4l2.4,13.5c0.5,3,0.2,3.3,1,7.3c2,10,3.3,20.1,5.5,30c0.5,2.2,0.5,4.8,1.1,7.1
	l2.5,13.3c0.4,3,1.7,10.9,2.6,13.4c0.4,1.3,0.3,2.1,0.5,3.7l4.2,23.3c0.3,1.9,0.9,4.4,1.4,6.3c0.5,2,0.5,5.2,0.9,7.4
	c0.4,1.7,1,4.7,1.3,6.4c0.4,2.6,0.8,4.6,1.1,7.1l7.3,40.1c0.9,3.3,0.9,6.9,1.8,10.1c0.5,1.7,0.6,0.8,0.8,3.2
	c0.3,3.6,2.4,16.8,3.5,19.9c1,3.1,1.2,7.1,1.8,10.5c0.2,1.5,0.5,1.7,0.7,3l2.1,10c0.1,1.2,0,2.4,0.3,3.6c0.5,1.8,0.7,0.2,0.8,3.1
	c0.1,1.7,0.2,2.2,0.5,3.7c0.3,1.4,0.3,2.2,0.5,3.7c0.2,1.3,0.5,1.5,0.8,2.8c0.3,1.3,0.1,2.7,0.4,3.7c0.4,1.5,0.7,0.3,0.8,2.7
	c0.2,3.8,0.9,6.8,1.7,10.3c0.2,0.9,0.3,2.6,0.5,3.6c0.4,2.1,0.5,4.6,1.4,6.5l6,33.7c0.3,1.4,0.2,2.4,0.5,3.8c0.3,2,1.8,6.5,2,9.8
	c0.2,2.8,0.7,1.3,1.1,6.7c0.1,1.9,0.5,1.9,0.8,3.4c0.2,1.3,0.1,2.4,0.4,3.7c1.7,6.5,2.5,15.3,4.1,21.7c0.2,0.6,0.4,1,0.4,1.4
	c0.3,1.2,0.1,2.4,0.3,3.5c0.4,1.8,0.8,0.5,0.9,3c0.3,4.6,0.9,3.2,1.1,6.7c0.1,2.2,0.5,1.7,0.7,3.4c0.2,1.3,0,2.7,0.3,4
	c0.2,1.2,0.5,1.3,0.8,2.8l5.2,30.9c0.2,1.2,0.5,1.5,0.7,2.9c0.3,1.7,1,5.4,0.9,6.8L259.2,875.3L259.2,875.3z M723.2,875.2
	c-5.8,0.6-13.6,0.1-19.6,0.1H507.7c-13.2,0-10.5,2.3-12.4-7.1c-0.3-1.4-0.6-2.9-1.1-4c-0.7-1.7-0.3-2.1-0.6-4.2
	c-0.2-1.3-0.6-2.7-0.8-4.2c-0.2-1.9-0.6-2.5-0.9-3.8c-0.4-1.7,0-2.8-0.6-4.6l-6-33c-0.7-1.7-2.9-18.2-3.6-21c-0.3-1.3-0.8-2-1-3.6
	l-2-13c-0.5-2.9-0.8-0.8-1-3.6c-0.2-2.9-0.3-6.3-1.3-8.9c-0.7-1.9-0.5-1.8-0.7-4.1c-0.2-1.7-0.7-2.6-0.9-3.8l-0.9-3.5
	c-0.5-1.4,0-3.2-0.5-4.8c-0.5-1.9-0.4-2-0.7-4.2c-0.2-1.9-0.8-1.4-1-3.7c-0.3-4.7-2.1-9.8-2.2-12.6l-5.8-33.8
	c-0.2-2.1-0.8-1.3-1-3.7c-0.3-3.3-2-10.1-2.1-12.3l-2.1-12.9c-0.7-1.9-0.8-1-0.9-3.7c-0.1-2.4-0.4-2.6-0.8-4.2
	c-0.3-1.6-0.2-2.5-0.6-4.2l-4.4-25.4c-0.7-4.7-1.8-8.1-2.1-10l-1-6.1c-0.6-2.8-0.8-5.9-1.3-8.4l-0.9-4.3c-0.3-2.8-1.4-5.2-1.7-7.8
	c-0.2-1.7,0.1-2.7-0.7-4.2c-1.1-1.9-0.4-1.6-0.7-4c-0.2-1.4-0.8-2.2-0.9-3.8l-1.9-13.2c-0.2-1.7-0.7-1.8-0.9-3.8
	c-0.2-1.9-0.1-2.5-0.7-4.2c-0.5-1.6-0.3-2.4-0.6-4.2l-1.6-8c-0.6-4.8-1.9-10-2.2-12.7l-3-16.6c-0.2-4.4-1.2-8.2-2.1-12.5l-3.9-20.5
	c-0.3-4.2-2.9-16.2-3.8-20.8l-2.8-17c-1.3-4.9-3.8-19.8-4.5-24.9c-0.3-1.9-0.7-1.8-0.9-3.8c-0.5-4.3-1.4-8-2.1-12.5
	c-0.6-4.3-1.9-8.4-2.2-12.8c-0.3-3.9-1.6-8.4-2.5-12.1c-0.4-1.5-0.2-2.7-0.6-4.3c-0.6-2.2-1.6-5.8-1.7-8.1c-0.2-2.1-0.3-2.4-0.7-4.2
	l-1.3-8.4c-0.2-1.3-0.8-2.2-0.9-3.8l-3-16.7c-0.4-3.8-1.6-8.4-2-12.6c-0.2-1.9-0.8-2.2-1-4.1c-0.1-1.5,0-3.2-0.4-4.7l-2.9-16.8
	c-0.5-3.5-2-8.1-2.4-11.9c-0.3-2.6-0.8-2-1.1-3.4c-0.3-1.3-0.1-3.1-0.4-4.6l-1.7-8.3c-0.2-1.8-0.2-2.6-0.6-4.3l-4.4-24.9
	c-0.2-2.5-0.8-1.5-1-4.1l-1.3-8.4c-0.6-1.8-0.4,0.4-0.7-1.7c-0.1-0.6,0-1.5-0.1-2.2c-0.2-1.9-0.8-2.2-1-3.8
	c-0.3-2.3,0.1-2.2-0.6-4.3c-0.5-1.4-0.3-2.6-0.6-4.1c-0.4-1.9-0.6-1.3-0.7-4.1c-0.1-2.5-0.8-2.2-1-4.1l-1.1-8.7
	c-0.3-1.8-0.8-2.1-0.9-3.9c-0.2-3.3,0.5-6.2,0.9-9.2c0.3-1.9-0.1,0.2,0.8-1.5c0.5-0.9,0.3-0.7,0.5-1.8l3.7-15.9
	c1.1-4.1,1.4-8.1,2.5-12.1l17.2-75.9c1.3-3.9,1.6-8.1,2.6-11.9l1.8-7.8c0.6-3.8,3.1-11.2,3.8-15.8c0.5-3.2,1.5-4.5,1.9-7.7
	c0.2-1.6,0-3,0.6-4.3c0.5-1.1,0.3-0.1,0.6-2c0.2-1,0.1-1,0.3-1.9c0.7-2.5,1.2-4.9,2-7.5c12.6-0.5,26.1,0,38.8,0h97.6
	c3,0,17.3-0.8,18.7,0.4c0.8,0.8,0.3,1.3,0.6,2.7c0.5,2.6,0.6,0.2,0.9,4.9c0.2,2.7,0.5,1.6,0.8,2.3c0.6,1.2,0,3.6,0.8,5.6l2.6,15.5
	c0.4,3.1,1.7,7,1.9,10c0.2,3.8,1.6,6.8,1.9,10.4l2.2,13.2c0.2,0.8,0.5,0.8,0.7,2.1c0.1,0.9,0.1,1.9,0.2,2.9c0.2,1.2,0.4,1.3,0.6,2.3
	L582,96c0.4,1.8,0.6,3.5,0.8,5.6l1,4.8c0.4,1.8,0.6,3,0.9,5l2.8,15.3c0.3,2,0.8,2.8,1,4.9c0.3,2.6,0.9,1.8,1,4.8l3.5,20.7
	c0.9,3.3,1.1,6.9,1.9,10.4l2.5,10.4c0.1,1.6-0.1,3.4,0.3,4.9c0.2,0.7,0.3,0.5,0.5,1c1,2,0.8,8.4,1.9,11c0.7,1.5,0.2,3.8,0.7,5.7
	c0.8,3.5,1.1,7.7,1.9,11.2l1.2,4.9c1,3.3,1.9,12.6,3,16.3c1.1,3.5,1.8,13.3,2.9,16.7c0.8,2.4,0.3,3.1,0.9,5.5c0.2,1,0.5,1.4,0.6,2.7
	c0.3,2.7,0.9,3.3,1,5.2l1,5.3c0.2,1.1,0,2,0.3,3.1c0.2,1,0.5,1.2,0.7,2.6l2.3,13.7c0.3,1,0.6,1.3,0.8,2.4c0.3,2.8,0.3,6,1.2,8.7
	l3.7,18.9c0.2,1,0.1,1.9,0.2,2.8c0.5,2.5,0.6,0.1,0.9,2.3c0.1,0.9,0,1.9,0.2,2.9c0.1,0.9,0.5,1.8,0.7,2.7c0.6,3.8-0.3,0.4,1,5.3
	c0.3,1.1,0.1,2.1,0.3,3.1c0.4,2.4,0.5-0.4,1,5.2l0.9,5.5c0.5,4.4,2.7,11.8,3,16.1c0.1,1.2-0.1,0.7,0.3,1.7l0.8,3.9
	c0.1,2.3,0.8,2.6,0.9,5.5c0.2,4.7,1.9,7,2.1,10.8l4.1,23.6c0.3,1.2,0,0,0.4,1l3.2,19.2c0.4,3.7,1.4,7.1,1.9,10.7
	c0.4,2.7,0.7,5.9,1.6,8.3c1.3,3.4,1.7,10,2.4,13.6l3.8,21.8c2.5,9.1,3.4,19.2,5.4,28.6l1.7,9c0.7,3.7,0.7,7.7,1.7,11.4
	c0.3,1.1,0.3,1.7,0.6,2.8c0.3,1.1,0.7,1.1,0.9,1.8c0.4,1.4,0.2,4.3,0.7,6.2l2.2,10.7c0.4,2.2,0.2,3.5,0.8,5.6
	c0.4,1.8,0.5,3.5,1.1,5.2l1.1,5.1c0.9,3.2,1.1,7.9,1.9,11.2c1.2,5.4,1.4,11.1,3.3,16.3l2.3,13.7c0.2,2.6,0,0.6,0.7,2.3
	c0.5,1.1,0.2,4.1,0.8,5.9l3.3,19.4c0.2,1.1,0.2,1.7,0.5,2.9c0.5,1.9,0.5,3.3,1.2,5c0.8,2,0.2,3.8,0.9,5.5c0.5,1.4,0.6,0.2,0.7,2.4
	c0.1,2.4,1.3,11.7,2.3,13.8c1.1,2.4,0.3,3,0.9,5.4c0.4,1.5,0.5,0.7,0.6,2.7c0.1,1.1,0,1.7,0.3,2.8c0.2,0.8,0.6,1.8,0.7,2.6
	c0.2,1.1,0.1,2,0.3,3.1l1.9,10.7c0.3,2,0.7,2.9,1,5.2l2.6,13.7c0.2,1.1,0.1,2,0.3,3.1c0.2,1.1,0.6,1.7,0.8,2.5
	c0.2,0.9,0.1,1.9,0.2,2.8c0.2,1.1,0.6,1.3,0.8,2.4c0.2,1,0,2.1,0.2,3.2c0.2,1.4,0.5,1.4,0.7,2.7c0.1,0.9,0.1,1.9,0.2,2.8l1,5.2
	c0.2,1.2,0.5,1.6,0.7,2.7c0.6,3.4,0.8,9.3,1.8,12.4l0.4,1.5c0.5,2.2,0.6,2.8,1,5.4c0.5,3.6,2.7,12.1,3.1,16
	c0.4,3.9,1.7,6.6,1.9,10.8c0.1,3.3,0.9,2.1,1.1,5.5c0.2,4.2,1.6,7.2,1.9,11.1l4,21.5c0.5,6.2,2.4,12.4,2.9,16.4
	c0.1,1.1,0.1,2.2,0.2,3.3c0.4,2.8,2.3,9.8,2.7,13.1c0.3,2.1,0.7,3.7,0.9,5.5c0.2,1.8-0.1,4.3,0.5,5.8L723.2,875.2L723.2,875.2z
	 M511.9,854.8c-0.2-1.3-0.1-2.8-0.3-4c-0.3-2-0.6,0-0.9-2.6c-0.2-1.3-0.1-2.3-0.4-3.4c-1.5-5.2-3.1-16.8-4.2-22.5
	c-0.4-2.1-0.2-5-0.9-6.6c-0.8-1.7-0.3-1.5-0.6-3.5c-0.2-1.2-0.5-1.5-0.8-2.9c-0.3-1.7-1-5-1.1-6.5c-0.4-5.7-0.9-3.5-1.1-6.7
	c-0.1-1.9-0.1-1.7-0.5-3.2c-0.4-1.5-0.3-1.8-0.4-3.5c-0.1-2.7-0.5-0.9-0.9-2.9c-0.3-1.2-0.2-2.5-0.4-3.4c-0.3-1.5-0.5-1.3-0.9-2.6
	c-0.3-1.1-0.3-1.9-0.5-3.2l-1.2-6.6c-1.6-8.7-2.6-17.3-4.5-25.9c-0.5-2.2-0.5-4.7-0.9-6.6c-0.4-2.1-1-4.3-1.4-6.3
	c-0.5-2.5-0.3-3.6-1-6.5c-0.3-1.4-0.1-2.3-0.4-3.8c-0.3-1.5-1.6-4.7-2-9c-0.2-2.8-0.9-4.1-1.3-6.4l-4.6-25.9
	c-0.2-1.2-0.1-2.4-0.3-3.6c-0.2-2-0.5-0.7-0.8-3c-0.6-4.8-0.9-3.2-1.1-6.7c-0.1-2.9-1.3-6.3-1.8-9.3c-0.2-1.2,0-2.2-0.3-3.4
	c-0.3-1.5-0.6-1.5-0.8-2.9c-0.2-1.5,0.1-1.9-0.4-3.3c-1.2-3-2.3-12.3-3-16.3c-0.2-1.3-0.5-1.4-0.7-3c-0.3-2.6-0.9-4.1-1.1-6.3
	l-1.8-9.7c-0.2-1.1-0.1-2.4-0.3-3.5c-0.2-1-0.7-1.6-0.8-3.1c-0.2-1.5-0.1-2-0.4-3.3c-1.1-3.8-3.1-14.8-3.6-18.9
	c-0.5-3.6-2.4-15.5-3.5-19.5l-5.5-32c-0.5-4.5-1.2-6.1-1.9-9.5l-5.1-29.1c-0.5-6.1-1.1-7.5-2.5-12.6c-0.7-2.7-2-12.9-2.7-16.6
	l-0.9-6.7c-0.2-1.5-0.6-1.3-0.7-3c-0.1-1.1,0.1-2.4-0.2-3.5c-0.4-1.3-0.7-0.2-0.9-2.8c-0.2-3.2-0.9-3.5-1.1-6.3
	c-0.2-2.5-0.6-0.8-1.1-6.7c-0.2-2.3-0.4-1-0.7-3c-0.2-1.3,0.1-2.2-0.3-3.4c-0.9-2.8-0.7-4.6-1.3-6.5c-0.8-2.5-1.2-7.2-1.5-10.2
	c-0.2-2.1-0.5-0.8-0.9-2.6c-0.2-1.1,0-2.4-0.3-3.5c-0.4-1.4-0.6-0.2-0.8-2.8l-1.2-6.5c-0.4-2.7-0.5-4.1-0.8-6.9
	c-0.2-2.2-0.6-0.7-0.9-3c-0.7-4.5-1.8-8.8-2-13.4c-0.1-1.5-0.3-1.8-0.8-2.7l-2.2-13.2c-0.1-2.4-0.8-1.7-1.1-6.3
	c-0.2-2.6-0.4-0.9-0.8-3c-0.2-1.2,0-2.2-0.3-3.4c-0.3-1.5-0.6-1.4-0.8-2.9c-0.2-1.2,0.1-2.3-0.3-3.4c-0.5-1.5-0.7-0.7-0.8-3.3
	l-1.7-9.4c-0.4-1.4-0.1-2.6-0.3-3.9c-0.4-1.6-0.7-0.1-0.9-2.7l-0.7-4.9c-0.2-0.8-0.1-1.1-0.2-1.8c-0.1-2.7-1-4-1.1-6.7l-0.4-1.9
	c0-0.1-0.1-0.1-0.1-0.2c-0.6-1.3-0.4-2.4-0.7-3.8c-1.6-6.4-2.6-12.8-3.7-19.3c-0.2-1.2-0.2-2.3-0.4-3.3c-0.3-1.3-0.6-1.4-0.9-2.7
	c-0.4-2.4-0.6-4.5-1-6.9l-9.1-51.4c-0.5-2-0.5-5.2-0.9-6.6c-0.4-1.3-0.7-1.5-0.8-3.3c-0.1-1.8,0.1-1.7-0.5-3.1
	c-1.4-3.2-0.7-8.2-2-11.4c-2-5.2,0.8-16,2.4-21.3c0.3-1.2,0.9-1.8,1-2.8c0.2-1.4,0-1.9,0.5-3.4l1.5-5.8c0.4-2.8,0.5-4.3,1.4-6.5
	c1.1-2.7,1.1-6.4,2-9.2c1.2-3.7,2.8-11.4,3.6-15.4c0.4-1.8,0.7-1.6,1-2.5c0.4-1.4-0.1-1.7,0.6-3.3c0.8-2,0.5-0.7,0.7-3.2l3.6-15.5
	c0.4-1.2,0.2-2,0.5-3.3l2.8-12.5c0.2-1,0.4-2.1,0.7-3l2.2-9.3c0.3-1.4,0.6-1.5,0.9-2.7c0.5-2.6,0.8-4.1,1.3-6.5
	c0.2-1.1,0.6-1.6,0.9-2.7l2-9.6c0.3-1.9,0.8-4.4,1.4-6c1.1-3,1.6-8,3-11.8l122.4,0l1.2,5.6c0.1,1-0.1,2.2,0.2,3.1
	c0.3,1,0.6,0,0.8,2.1c0.2,1.1,0,1.9,0.3,3.1c0.4,1.6,0.5,0.9,0.8,2.5c0.2,1.2,0,1.9,0.3,3.1c0.6,1.9,0.2-0.2,0.7,1.4
	c0.1,1.1,0.1,2.6,0.2,3.6c0.2,1.2,0.5,1.4,0.8,2.9c0.2,0.9,0.1,2.2,0.4,3.3c0.4,1.4,0.5,1,0.6,3.1l5.8,31.3c0.9,3.1,0.8,6.4,1.5,9.3
	c0.3,1.2,0.6,1.8,0.7,2.9c0.4,2.7,0.8,4.1,1,6.6c0.1,2.4,0.8,2.4,1.1,6.3c0.2,2.3,0.4,1.2,0.8,2.7c0.3,1.1,0.1,2.3,0.4,3.4
	c0.3,1.2,0.6,1.5,0.8,2.8l5.9,34.9c0.1,2.6,0,1.2,0.7,2.7c0.7,1.3,1.2,7.3,1.7,9.4c0.5,2.1,0.9,4,1.3,6.1c0.4,2.7-0.1,4.1,1,6.5
	c0.9,1.8,1.9,10,2.3,12.1l3.5,18.7c0.4,2,0.2,5.1,0.6,6.7c0.2,0.9,0.7,0.9,0.9,2.6l2.1,12.8c0.2,1.9,0.4,1.3,0.8,2.8
	c0.3,1.1,0.2,2.3,0.4,3.5c0.7,4.7,2.3,10.1,2.7,15.6c0.1,1.4,0.4,1.7,0.8,2.8c1.4,5.1,2,10.4,2.9,15.5c0.3,1.3,0.2,2.2,0.3,3.5
	c0.2,1.5,0.5,1.4,0.8,2.8c0.3,1.2,0.2,2.3,0.4,3.4c0.2,1.2,0.5,1.4,0.8,2.9c0.4,2.4,0.6,3.7,1,6c0.3,1.3,0.6,1.2,0.8,2.7l1.1,6.4
	c0.2,1.2,0.1,2.2,0.4,3.4c0.4,1.7,0.6,5.2,1,6.6c1.1,3.7,2.5,11.4,2.9,15.5c0.4,3.6,2.4,9.4,2.8,15.6c0.2,2.8,1.4,6.1,1.9,9
	c0.5,3,0.5,7.6,1.3,10c0.4,1.2,0.7,0.2,0.9,2.8c0.2,2.7,0.8,4,0.9,6.7c0.1,3.3,0.1,0.9,0.8,2.7c0.4,1.1,0.2,2.3,0.3,3.5
	c0.2,1.3,0.6,1.6,0.9,2.7c0.4,2.3,0.1,2.3,0.9,4.7l2.3,14.2c0.1,2.3,0.1,1.4,0.7,2.9c0.5,1.3,0.2,1.8,0.5,3.2c0.2,1,0.6,1.7,0.7,2.9
	c0.4,3.2,0.6,6.5,1.5,9.3c1,3,1.2,6.3,1.8,9.3l2.9,15.3c0.3,2.5,0.6,4.2,0.9,6.7c0.1,1.1,0.6,1.7,0.8,2.7c0.2,1.2,0.2,2,0.5,3.2
	l2.4,12.4c0.7,3.2,0.9,6.7,1.4,9.9c0.2,1.7,0.5,0.9,0.9,2.7c0.7,3.9,1.7,8.3,2.2,12.2l1,6.5c0.2,1.3,0.6,1.9,0.8,2.8
	c0.6,3.4,1.5,9.5,2.3,12.5c0.3,0.9,0.5,1.4,0.6,2.9c0.2,2.6,0.8,4.3,1,6.7c0.1,1.1,0,2.6,0.2,3.6c0.2,1.2,0.6,1,0.9,2.7
	c0.4,2.7,0.7,3.7,1.2,6.1c0.2,1.2,0.6,1.8,0.7,2.9c0.4,2.9,0.8,6.5,1.6,9.3c0.6,2,0.4,4.7,0.9,6.6l6.3,34.6c1,3.1,4.1,21.5,4.3,25.2
	c0.2,2.4,0.2,0.9,0.7,2.4c0.4,1.2,0.2,2.1,0.4,3.5c0.2,1.4,0.5,1.3,0.8,2.9c0.2,1,0.2,2.2,0.4,3.3c0.6,2.7,1.6,6.3,1.8,9.4
	c0.2,2.6,0.2,1.3,0.7,2.8c0.4,1.2,0.1,1.9,0.4,3c0.5,2,0.6-0.3,0.8,2.6c0.3,3.9,2.9,17.8,3.8,22.4c0.2,1.1,0.1,2.4,0.3,3.5
	c0.3,1.4,0.6,0.7,1,2.5l3.2,18.7c0.2,1.1,0.5,1.9,0.7,3c0.2,1.3,0,2.1,0.4,3.4c1.9,7.1,3,14.5,3.9,21.8c0.2,1.7,0.5,1.4,0.7,3
	c0.7,4.9,1.6,7.6,2,13c0.1,1.3,0.8,2.7,1.1,5.9c0.2,2.1,0.4,0.9,0.9,2.7c0.3,1.2,0,2.2,0.4,3.4c1.2,4.3,2.5,11.3,2.8,15.8
	c0.2,2.8,0.3,0.6,0.8,2.7c0.3,1.1,0.1,2.3,0.4,3.5c0.2,1,0.6,1.4,0.8,2.8c0.4,2.2,0.6,4.1,1,6.5c0.3,1.7,0.5,1.3,0.8,2.8l1.1,6.4
	c0.2,1.1,0.1,2.1,0.3,3.1c0.2,1.3,0.5,1.3,0.7,3c0.8,5.6,3.7,18.6,4,21.6c0.3,2.8,0.9,3.9,1.1,6.3c0.1,1.2,0,2.4,0.3,3.5
	c0.3,1,0.5,1.2,0.8,2.7l1.2,6.2c1,4.5,1.9,6.6-2.3,6.6l-43.8,0C640.4,854.9,517.2,855.4,511.9,854.8L511.9,854.8z M460.9,854.8
	c-5.4,0.5-12.5,0.1-18.1,0.1H280.7c-9.8,0-5.4,0.9-7.6-6.2c-0.5-1.7-0.1-2.5-0.4-4.2c-0.3-2-0.8,0.1-1-3.4c-0.1-2.6-0.2-1.8-0.7-3.6
	c-0.4-1.4-0.2-2.6-0.5-4c-0.2-1-0.2-0.1-0.5-1.7c-0.1-0.8-0.1-1.4-0.1-2.2c-0.1-2-1.8-6.7-2.1-11.5c-0.1-2.7-0.5-1.7-0.9-3.4
	c-0.3-1.3-0.3-2.7-0.5-4c-0.4-1.7-0.4-2.2-0.5-4.1c-0.2-2.4-1.2-4.7-1.6-7c-0.3-1.6-0.3-2.7-0.5-4.5c-0.2-1.8-0.6-1.8-0.8-3.7
	c-0.2-2,0.3-2.1-0.6-3.8c-0.7-1.5-0.4-4.3-1-5.7c-1.2-2.8-1.2-6.3-1.8-9.4l-3.5-19.2c-0.3-1.4-0.1-3-0.4-4.1
	c-0.3-0.9-0.2,0.1-0.6-1.5c-0.2-0.8-0.2-1.2-0.2-2.1c-0.2-2.8-2.4-11.2-3-15c-0.3-1.8-0.6-2.2-0.8-3.6c-0.2-1.4-0.2-2.8-0.4-4.2
	c-0.9-5.6-2.8-17.4-4.1-22.9c-0.9-3.6-1.2-7.7-2-11.4c-0.3-1.2-0.6-2.3-0.7-3.8c-0.2-2.1-0.4-2.3-0.7-3.8c-0.3-1.4-0.1-2.8-0.4-4.2
	l-1.6-7.6c-0.2-1.3,0-3-0.4-4.1c-0.5-1.4-0.8-1.7-0.8-3.7c-0.1-3.2-0.2-1.5-0.9-3.2c-0.5-1.1-0.3-2.8-0.5-4.1l-1.5-7.4
	c-0.4-1.4-0.3-2.6-0.7-4.1l-1.4-7.5c-0.1-1.8,0-2.5-0.5-4l-1.4-7.5c-0.2-1.5-0.2-2.2-0.7-3.6c-0.6-1.6-0.3-2-0.6-3.8
	c-0.3-1.5-0.5-1.8-0.8-4.1l-1.2-7.7c-0.3-1.4-0.6-1.8-0.7-3.8c-0.1-2.3-0.2-1.7-0.8-3.6c-0.3-1.1-0.4-2.6-0.6-3.8
	c-0.5-2.4-0.9-5.1-1.4-7.6l-1.3-8c-0.2-1.9-0.6-1.9-0.8-3.7c-0.2-1.5,0.1-2.7-0.3-4.1c-0.5-1.9-0.7-1.2-0.8-3.7
	c-0.2-3.1-0.3-1.3-1-3.2c-0.3-0.9-0.4-2.6-0.7-3.8l-8.1-46.2c-0.3-1.4-0.1-3-0.4-4.2c-0.3-1.6-0.7-0.8-0.9-3.8l-8-46.3
	c-0.3-1.4-0.7-0.6-1.1-3.1c-0.2-1.5-0.6-2-0.8-3.7c-0.1-1.4-0.4-2.7-0.6-3.9l-12.8-72.6c-0.7-3.9-2.5-11.8-2.9-15.2
	c-0.3-3.6-1.7-7.7-1.8-11.9c-0.1-3.2-0.3-1.6-0.9-3.4c-0.3-1.1-0.2-2.9-0.5-4c-0.5-2-0.5-2.1-0.6-4.4c0-0.7-1.8-7.5-2.2-11.1
	c-0.2-2-1.1-5-1.6-7.1l-3.4-19.2c-0.1-0.5-0.2-1.4-0.3-1.9c-0.3-1-0.3-0.6-0.5-1.7l-2-11.4c-0.3-4.4-1.4-7.4-2-11.8
	c-0.6-4.1-3-16.3-3.1-19.4l-2.1-11.5c-0.2-1.8-0.6-1.8-0.9-3.5l-1.1-8c-0.1-1.4-0.6-2.2-0.9-3.4c-0.6-2.4-0.8-4.9-1.2-7.7
	c-0.5-3.4-1.5-4.4-0.1-8c0.6-1.5,0.3-2.3,0.4-4c0.2-2,0.6-1.5,0.8-3.7c0.2-3.3,0.8-4.3,1.2-7.8c0.2-2.1,0.6-1.7,0.8-3.7
	c0.2-2.2,0.3-1.8,0.8-3.5l4.2-22.9c0.5-3.1,0.2-5.1,1-8.1c1.2-4.5,3.4-17.4,4.3-22.6c0.4-2.4,0.9-0.6,1-3.3c0-0.8,0-1.5,0.1-2.3
	c0.2-1.4,0.3-0.8,0.5-1.7c0.4-1.4,0-3.1,0.5-4.5c0.5-1.8,0.7-0.4,0.8-3.5c0.1-2.4,0.3-1.9,0.8-3.7l1.1-7.9c0.2-2.8,0.5-2,0.9-3.5
	c0.4-1.4,0-2.5,0.5-4.1l6.2-34.3c0.4-1.6,0.2-2.8,0.6-4.3c0.3-1.3,0.8-1.7,0.9-3.3c0.1-0.7,0-1.5,0.2-2.1c0.6-2.1,0.2,0,0.8-1.4
	c0.3-0.9,0-2.8,0.3-4.1c0.4-1.8,0.6-1.3,0.7-3.8c0.1-1.7,0.6-2.6,0.9-3.6c0.8-2.8-0.7-4.8,1.5-7.6l122.4,0l2.4,13
	c0.1,2.5,0.4,1.5,0.8,3.3c0.2,1.1,0,2.6,0.1,3.7c0.3,1.9,0.6,0.3,1,2.6c0.2,1.1-0.1,2.4,0.2,3.5c0.3,0.9,0.7,1.5,0.9,3.2
	c0.2,2.3,0.7,3.5,0.9,6.7c0.1,1.4,0.5,1.6,0.8,2.7c0.4,1.3,0.1,2.2,0.3,3.6c0.2,2.6,0.4-0.1,1,2.3c0.8,2.7,0.7,7.6,1.7,10
	c0.7,1.6,0,2.8,1.2,6.2c0.7,2.2,0.8,7.7,1.6,10c1,2.9,1.1,6.9,1.6,10c0.3,1.7,0.6,1.3,0.8,2.8c0.2,1.3,0.1,1.9,0.5,3.2l2.7,15.9
	c0.2,1,0.6,1.9,0.8,3.2l3,15.7c0.5,2.3,0.6,4.3,1,6.5l2.1,13.2c0.3,2.7,1.5,6.3,1.9,9c0.2,1.4,0.1,2.1,0.5,3.3l3.5,19.2
	c0.5,6.2,0.9,3.3,1.1,6.3c0.2,3.2,0.8,3.8,0.9,7.1c0.1,2.4,0.3,1.1,0.8,2.7c0.4,1.1,0.1,2.4,0.3,3.6c0.2,2.1,0.5,0.9,0.9,2.6
	c0.2,1.1,0.1,2.5,0.2,3.6c0.2,1.4,0.6,1.3,0.8,2.7c0.3,1.5,0.1,1.8,0.6,3.2c0.5,1.4,1.1,4.7,1.3,6.4l2.3,12.9c0.5,2.4,0.6,3.7,1,6.4
	l2.6,12.5c0.2,1.2,0.2,2.3,0.3,3.5c0.2,1.6,0.4,1.5,0.7,3l3.4,19.2c0.5,3.7,1.4,8.9,2.3,12.6l2.2,13.1c0.4,2.3,0.6,4.2,1.1,6.3
	c0.3,1.2,0.2,2,0.4,3.3c0.1,1.3,0.5,2,0.7,3c0.7,4.5,1.5,8.1,2.4,12.8c0.4,2.4,0.5,4.8,0.9,7c0.3,1.4,0.6,1.5,0.8,2.8
	c0.2,1.3,0,2.1,0.4,3.4l1.7,9.9c0.1,1.3,0.5,1.7,0.8,2.8c0.3,1.1,0.2,2.1,0.5,3.3c0.4,1.3,0.6,1.1,0.7,2.8c0.3,2.8,0.8,4.2,1,6.7
	c0.1,2.8,0.6,1.9,1.1,6.7c0.2,1.5,0.5,1.4,0.8,2.8c0.3,1.2,0.1,2.3,0.4,3.4c0.2,1,0.6,1.4,0.8,2.8c0.2,1.4,0.2,2.1,0.5,3.3
	c0.5,2,0.6,4.4,1.1,6.3c1.4,5.8,3.7,20.2,4.4,25.8c0.1,1.1,0.6,1.9,0.9,3c0.4,1.4,0.9,6.8,1.7,9.5l7.8,45.3c0.4,1.2,0.5,1.6,0.6,3.2
	c0.1,2.2,0,1.4,0.6,3c1.2,3,3.2,16.4,3.4,19.7c0.1,2,0.4,1.3,0.7,3c0.2,1.2,0.1,2.5,0.2,3.7c0.2,2.2,0.5,0.6,0.9,2.6
	c0.5,2.5,0.4,8,1.3,9.8c0.4,0.8,0.3-0.7,0.7,1.7l0.9,4.6c0.3,1.3,0.1,2.3,0.3,3.6c0.2,1.5,0.5,1,0.8,2.7l3.6,19.3
	c0.6,2,0.4,4.7,0.9,6.6l4.7,25.2c0.4,2.1,0.8,3.5,1,6.3c0.2,1.8,0.8,4.7,1.1,6.3c1,4.7,2.4,15.2,3.5,19.1c0.3,1.2,0.2,2.1,0.4,3.3
	c0.2,1,0.5,1.5,0.7,3c0.4,2.5,0.9,3.7,1.1,6.8l2.3,12.9c0.2,1.1,0.5,1.5,0.7,3.1c0.7,7.5,2.8,14.8,3.9,22.6c0.1,1,0.2,2.3,0.4,3.3
	c0.3,1.4,0.5,0.8,0.7,3.1c0.2,2.9,0.9,3.2,1.1,6.7c0.2,2.9,0.2,0.6,0.8,2.7c0.3,1.1,0.1,2.1,0.4,3.3c0.5,1.9,0.6,4.8,1.1,6.4
	c1.2,3.9,3.1,15,3.7,18.8l1,6.6c0.1,2.5,0.9,3.8,1.1,6.3c0.1,2,0.4,1.7,0.8,3.2c0.8,3.2,0.7,6.7,1.5,9.7l1.9,8.8
	c0.5,1.5,0.7,1.6,0.8,3.4l2.1,13.3c0.9,4.2,1.4,8.2,2.2,12.6c1,5.2,2.2,10.9,2.7,16.4c0.2,1.8,0.5,1.5,0.8,2.7
	c0.3,1.2,0.1,2.2,0.4,3.4l3,15.7C459.7,846,461.1,850.6,460.9,854.8L460.9,854.8z M40,854.7c-0.1-0.9,2.3-14.8,2.8-16
	c1.1-3,5.1-28,6.2-31.6l2.5-11.4c0.3-1.4,0.1-2.5,0.5-4.1c0.7-2.7,1.1-5.4,1.5-8.1c0.4-2.1,0.8-1.4,1-3.7c0.3-3.9,1.5-8.2,2-11.9
	l1.5-7.8c0.6-2.9,0.9-5.3,1.6-8l1.8-7.4c0.5-2.7,0.9-5.3,1.5-7.7l1.4-8c0.3-2.5,0.7-6.2,1.6-8c0.6-1.4,1.1-6.1,1.4-7.9
	c0.4-2.4,0.9-1.6,1.2-3.4c0.4-2.8,0.5-5.7,1.3-8.5l2.4-11.6c0.3-1.5,0.1-3.2,0.4-4.7l2.6-11c0.4-1.6,0.1-2.7,0.6-4.2l1.5-7.8
	c0.3-2,0.7-1.8,1-3.7c0.7-5.4,1.5-10.4,2.9-15.8l3.3-15.4c0.2-2,0.2-2.6,0.7-4.3c0.3-1.2,0.4-2.4,0.7-3.7l1.6-7.6
	c0.3-3.6,0.8-0.6,1-3.7c0.3-4.3,1.5-7.9,2-12.2c0.6-4.8,1.6-5.8,1.9-7.2c0.3-1.4-0.1-2.8,0.4-4.6l0.8-4c0.5-2,0.6-1.1,0.8-3.9
	c0.2-2.3,0.7-1.8,1-3.4c0.3-2,0-2.5,0.5-4.5l2.3-11.8c0.3-2.2,0.1-2.1,0.7-4.1c1-3.1,2-11.7,3.1-15.4l5.3-27.5
	c0.3-1.5,0.9-2,1.1-3.4l0.7-4.2c0.5-1.9-0.1-2.3,0.7-4.2c0.9-1.9,0.3-1.9,0.6-3.8c0.4-2.2,0.8-0.6,1-3.7c0-1,0-1.2,0.2-2.1
	c0.7-2.6,0.9-7.2,1.9-9.7c1-2.5,0.4-2.7,1.1-5.2c0.2-0.8,0.1-0.3,0.3-0.8c1.2-3.1,1-6.7,1.7-9.8c0.5-2.1,0.6-1.5,0.8-4l6.1-30.8
	c0.8-2.7,0.6-1.2,0.9-4.5l4.6-23.8c0.4-1.3,0.5-2.6,0.9-3.9c0.5-1.7,0.3-2.2,0.6-3.9c0.4-1.7,0.8-1.3,0.9-3.7
	c0.1-2.1,0.4-2.3,0.6-4.1c0.3-2.3,0.2-2,1-3.7c0.6-1.5,0.1-2.8,0.7-4.2c0.5-1.4,0.5-0.1,0.7-1.7c0.1-0.7,0-1.5,0.1-2.2
	c0.4-2.5,0.9-0.5,1-3.3c0.1-2.8,0.7-2.7,1-3.9c0.3-1.1-0.1-2.8,0.3-4.3l0.7-4.1c0.2-1.6,0.3-2.5,1.6-3c0.7,1.4,0.2,2.7,0.6,4.4
	c0.3,1.3,0.7,1.4,0.9,3.5c0.4,4.5,1.7,7.7,2,12.3c0.1,1.9,0.6,1.8,1,3.3c0.5,2.5,0.8,5.3,1.2,8.1c0.7,4.9,2.5,10.7,2.9,15.7
	l3.5,19.9c0.5,1.7,0.2,2.3,0.4,4.1c0.2,1.3,0.9,2.1,1,3.8c0.2,2.4,0.2,1.9,0.8,3.5c0.8,2.4,1.1,5.3,1.3,8l1.7,7.5
	c0.2,1.5,0.1,3.1,0.4,4.6c0.3,1.7,0.6,1.4,0.8,3.5l1.2,8.2c0.4,1.7,0.7,2,0.8,4c0.1,2.6,0.2,1.7,0.8,3.5l5.4,31.4
	c1,3.6,1.6,10,2.1,12l1.5,7.9c0.1,1.6-0.3,2.6,0.4,3.9l0.5,1c0.1,0.5,0.1,0.5,0.1,1.1l1.2,5.3c0.7,2.5,0.6,5.3,1.1,7.9
	c0.5,2.5,0.8,5.4,1.6,7.6c0.8,2.5,0.9,5,1.3,8.1c0.2,1.7,0.7,2.5,0.9,3.8c0.3,2.2,0.1,1.9,0.7,3.7c1.1,3,1.9,12.2,2.7,15.8l2.7,15.9
	c0.2,1.5,0.6,2,0.9,3.5c0.7,3.9,1.7,8.1,2,11.9l4.2,23.6c0.4,2.2,0.9,5.7,1.5,7.8c0.4,1.6,0.2,3,0.4,4.6c0.3,1.8,0.7,1.2,0.8,3.8
	c0.1,3.3,0.3,1,1,3.6c0.4,1.4,0.1,2.8,0.4,4.1c0.3,1.5,0.3,0.1,0.6,2c0.4,2.2,0.3,3.3,1,5.6c0.5,1.5,1,6.3,1.2,8.2
	c0.2,2.3,0.7,1.8,0.9,3.8l3.3,19.8c1.2,4.9,2.1,10.8,2.6,16.2l1.8,7.1c1.3,6.3,2.5,17.2,4.2,23.2l0.8,4c0.8,3.5,0.8,9,1.8,12.1
	c0.5,1.6,0.3,2.5,0.7,4.2l1.6,7.7c0.3,1.8,0,2.1,0.6,3.9c0.4,1.4,1.4,6.3,1.6,7.6c0.4,3.1,0.7,5,1,8.1c0.2,1.9,0.7,1.4,1,3.7
	c0.5,4.1,1.4,7.7,2,11.7c0.3,2.2,0.9,5.4,1.4,7.8c0.4,1.8,0.5,2.3,0.6,4.3c0.2,3.1,6.4,31.3,6.1,34.8L40,854.7z"/>
</svg>
