<?xml version="1.0" encoding="UTF-8"?>
<!DOCTYPE svg PUBLIC "-//W3C//DTD SVG 1.1//EN" "http://www.w3.org/Graphics/SVG/1.1/DTD/svg11.dtd">
<!-- Creator: CorelDRAW X8 -->
<svg xmlns="http://www.w3.org/2000/svg" xml:space="preserve" width="9.58857in" height="11.1111in" version="1.1" style="shape-rendering:geometricPrecision; text-rendering:geometricPrecision; image-rendering:optimizeQuality; fill-rule:evenodd; clip-rule:evenodd"
viewBox="0 0 3435 3980"
 xmlns:xlink="http://www.w3.org/1999/xlink">
 <defs>
  <style type="text/css">
   <![CDATA[
    .fil0 {fill:white;fill-rule:nonzero}
   ]]>
  </style>
 </defs>
 <g id="Layer_x0020_1">
  <metadata id="CorelCorpID_0Corel-Layer"/>
  <path class="fil0" d="M1970 3959c-82,14 -167,21 -253,21 -86,0 -170,-7 -252,-21 0,-1145 0,-2290 0,-3435 -168,24 -330,73 -482,144 -227,106 -432,261 -596,457l-387 -324c213,-254 477,-454 770,-591 293,-137 616,-210 947,-210 332,0 654,73 948,210 293,137 556,337 770,591l-387 324c-165,-196 -369,-351 -596,-457 -152,-71 -315,-120 -482,-144 0,1145 0,2290 0,3435zm223 -3156c227,75 430,202 595,367 275,275 445,654 445,1071 0,418 -170,797 -445,1072 -165,165 -368,292 -595,367l0 -547c89,-47 170,-107 240,-177 182,-183 295,-435 295,-715 0,-279 -113,-532 -295,-714 -70,-70 -151,-130 -240,-177l0 -547zm-952 2877c-226,-75 -429,-202 -594,-367 -275,-275 -445,-654 -445,-1072 0,-417 170,-796 445,-1071 165,-165 368,-292 594,-367l0 547c-88,47 -169,107 -239,177 -182,182 -295,435 -295,714 0,280 113,532 295,715 70,70 151,130 239,177l0 547z"/>
 </g>
</svg>
