<svg xmlns="http://www.w3.org/2000/svg" viewBox="0 0 12.8 18.13"><defs><style>.cls-1{fill:#2eb5ea;}</style></defs><title>header-user-iconAsset 2</title><g id="Layer_2" data-name="Layer 2"><g id="Layer_1-2" data-name="Layer 1"><path class="cls-1" d="M7.84,12.76V10.4a6.36,6.36,0,0,0,2.44-2.71c2.25-1.94-.44-3.12-.44-3.12C9.84-.37,6.4,0,6.4,0S3-.37,3,4.57c0,0-2.69,1.19-.44,3.13A6.36,6.36,0,0,0,5,10.4v2.35S-2,15,.59,16.59A13,13,0,0,0,6.4,18.13a13,13,0,0,0,5.81-1.54C14.84,15,7.84,12.76,7.84,12.76Z"/></g></g></svg>