<svg xmlns="http://www.w3.org/2000/svg" viewBox="0 0 13.67 20.17"><defs><style>.cls-1{fill:#63b97a;}</style></defs><title>header-notification-iconAsset 3</title><g id="Layer_2" data-name="Layer 2"><g id="Layer_1-2" data-name="Layer 1"><path class="cls-1" d="M6.83,3.25S1,4.5,0,15.25c0,0,1.58,1.83,6.83,1.83s6.83-1.83,6.83-1.83C12.67,4.5,6.83,3.25,6.83,3.25Z"/><path class="cls-1" d="M6.83,18.42c-.67-.08-3.42-.75-2.67,0a14.84,14.84,0,0,0,2.67,1.75A14.84,14.84,0,0,0,9.5,18.42C10.25,17.67,7.5,18.33,6.83,18.42Z"/><path class="cls-1" d="M6.83,2.17s1.5-.08,1.83-.5S6.83,0,6.83,0,4.67,1.25,5,1.67,6.83,2.17,6.83,2.17Z"/></g></g></svg>