<?xml version="1.0" encoding="utf-8"?>
<!-- Generator: Adobe Illustrator 21.1.0, SVG Export Plug-In . SVG Version: 6.00 Build 0)  -->
<svg version="1.1" id="Capa_1" xmlns="http://www.w3.org/2000/svg" xmlns:xlink="http://www.w3.org/1999/xlink" x="0px" y="0px"
	 viewBox="0 0 612 612" style="enable-background:new 0 0 612 612;" xml:space="preserve">
<style type="text/css">
	.st0{fill:#00ABDA;}
	.st1{fill:#FFFFFF;}
</style>
<g>
	<circle class="st0" cx="306" cy="306" r="306"/>
	<g>
		<g>
			<path class="st1" d="M518,174.6c-15.6,6.9-32.3,11.6-49.9,13.7c18-10.7,31.8-27.8,38.3-48.1c-16.9,10-35.4,17.2-55.2,21.1
				c-15.9-16.9-38.5-27.4-63.5-27.4c-48,0-87,38.9-87,87c0,6.8,0.7,13.5,2.3,19.8c-72.3-3.7-136.4-38.3-179.2-90.9
				c-7.5,12.8-11.7,27.8-11.7,43.7c0,30.2,15.3,56.8,38.7,72.4c-14.2-0.5-27.6-4.4-39.4-10.9v1.1c0,42.1,30,77.3,69.7,85.3
				c-7.2,1.9-15,3-22.9,3c-5.6,0-11-0.6-16.3-1.7c11.1,34.6,43.2,59.7,81.2,60.4c-29.7,23.3-67.3,37.2-108,37.2
				c-7.1,0-13.9-0.5-20.7-1.2c38.5,24.7,84.2,39.1,133.3,39.1c160,0,247.4-132.5,247.4-247.4l-0.3-11.3
				C491.6,207.3,506.3,192,518,174.6z"/>
		</g>
	</g>
</g>
</svg>
