<?xml version="1.0" encoding="iso-8859-1"?>
<!-- Generator: Adobe Illustrator 19.0.0, SVG Export Plug-In . SVG Version: 6.00 Build 0)  -->
<svg version="1.1" id="Capa_1" xmlns="http://www.w3.org/2000/svg" xmlns:xlink="http://www.w3.org/1999/xlink" x="0px" y="0px"
	 viewBox="0 0 512 512" style="enable-background:new 0 0 512 512;" xml:space="preserve">
<circle style="fill:#FAC149;" cx="256" cy="256" r="256"/>
<path style="fill:#7D92A8;" d="M256.904,467.402V351.095c0-3.428-3.872-5.5-6.669-3.519c-7.099,5.03-15.767,7.988-25.129,7.988
	c-9.363,0-18.031-2.959-25.13-7.989c-2.797-1.982-6.669,0.09-6.669,3.519v116.307h63.597V467.402z"/>
<path style="fill:#647892;" d="M199.976,347.576c-2.797-1.982-6.669,0.09-6.669,3.518v116.307h27V355.297
	C212.787,354.471,205.844,351.734,199.976,347.576z"/>
<path style="fill:#EFEFEF;" d="M73.987,52.32c-35.768,35.768-35.768,93.761,0,129.529c21.773,21.773,51.776,30.266,79.993,25.532
	c-0.178-0.861,0.042-1.797,0.727-2.481l71.376-71.376c0.813-0.814,1.899-1.148,2.937-1.038c4.798-28.267-3.686-58.349-25.503-80.167
	C167.748,16.552,109.755,16.552,73.987,52.32z"/>
<g>
	<path style="fill:#DDDDDD;" d="M178.596,181.011c-47.153,5.167-91.044-26.825-99.909-74.222
		c-4.722-25.249,1.408-50.01,15.093-69.49c-7.084,3.998-13.76,8.988-19.794,15.021c-35.768,35.769-35.768,93.761,0,129.529
		c21.773,21.772,51.776,30.266,79.993,25.532c-0.178-0.861,0.042-1.797,0.727-2.481L178.596,181.011z"/>
	<path style="fill:#DDDDDD;" d="M100.643,200.387l121.41-121.41c-4.416-9.657-10.588-18.707-18.537-26.656s-17-14.121-26.656-18.537
		L55.45,155.194C64.337,174.627,80.178,191.028,100.643,200.387z"/>
</g>
<path style="fill:#CECCCA;" d="M128.693,172.337c-19.443-9.465-35.332-25.707-44.132-46.255L55.45,155.193l0.001,0.001
	c8.831,19.312,24.602,35.693,44.94,45.07c0.086,0.039,0.171,0.08,0.256,0.119L128.693,172.337z"/>
<path style="fill:#68C4FC;" d="M456.243,443.41c-2.26,0-4.521-0.863-6.247-2.587l-26.745-26.745c-3.449-3.45-3.449-9.042,0-12.493
	c3.45-3.448,9.042-3.448,12.493,0l26.745,26.745c3.449,3.45,3.449,9.042,0,12.493C460.764,442.547,458.503,443.41,456.243,443.41z"
	/>
<path style="fill:#7D92A8;" d="M375.024,388.06l19.772,19.772c9.543,9.543,25.159,9.543,34.702,0l0,0
	c9.543-9.543,9.543-25.159,0-34.702l-19.772-19.772L375.024,388.06z"/>
<path style="fill:#647892;" d="M405.96,394.683l-18.78-18.78l-12.156,12.156l19.772,19.772c9.544,9.543,25.159,9.543,34.703,0
	c2.008-2.008,3.568-4.295,4.732-6.729C424.662,404.434,413.57,402.293,405.96,394.683z"/>
<path style="fill:#CECCCA;" d="M67.741,188.096c-3.449-3.45-3.449-9.042,0-12.493L197.269,46.074c3.45-3.448,9.042-3.448,12.493,0
	c3.449,3.45,3.449,9.042,0,12.493L80.233,188.096C76.782,191.545,71.191,191.544,67.741,188.096z"/>
<path style="fill:#BAB9B9;" d="M97.641,158.33c-2.785-2.785-3.554-6.812-2.332-10.295l-27.568,27.568
	c-3.449,3.45-3.449,9.042,0,12.493c3.452,3.449,9.042,3.448,12.493,0l27.289-27.289C104.05,161.855,100.258,160.946,97.641,158.33z"
	/>
<path style="fill:#7D92A8;" d="M194.231,234.649l62.373-62.373l-24.938-38.172c-1.255-1.922-3.96-2.202-5.584-0.579l-71.375,71.376
	c-1.225,1.225-1.013,3.265,0.437,4.212L194.231,234.649z"/>
<g>
	<path style="fill:#647892;" d="M180.681,182.708c-0.86-0.562-1.327-1.462-1.389-2.392l-24.585,24.585
		c-1.225,1.224-1.013,3.265,0.437,4.212l39.087,25.536l26.063-26.063L180.681,182.708z"/>
	<path style="fill:#647892;" d="M418.4,334.361L256.603,172.276l-44.923,44.465l120.353,119.501c1.693,1.693,1.693,4.437,0,6.13
		l-15.184,15.184l39.439,39.439c3.357,3.357,8.799,3.357,12.156,0l49.956-49.956C421.901,343.538,421.901,337.862,418.4,334.361z"/>
</g>
<path style="fill:#546A82;" d="M220.039,208.468l-8.359,8.273l120.353,119.501c1.693,1.693,1.693,4.438,0,6.13l-15.184,15.184
	l39.439,39.439c3.357,3.357,8.799,3.357,12.156,0l19.911-19.911L220.039,208.468z"/>
<path style="fill:#68C4FC;" d="M332.834,336.278L213.852,217.296c-1.728-1.728-4.531-1.729-6.259,0l-30.782,30.782
	c-1.729,1.728-1.729,4.53,0,6.259l29.485,29.486l58.307,58.307l31.19,31.19c1.728,1.729,4.531,1.729,6.259,0l30.781-30.781
	C334.562,340.809,334.562,338.007,332.834,336.278z"/>
<path style="fill:#48AEF9;" d="M316.49,357.269c-11.868-11.868-111.147-111.147-123.555-123.555
	c-0.307-0.307-0.542-0.655-0.744-1.017l-15.38,15.38c-1.729,1.729-1.729,4.531,0,6.259l29.485,29.485l58.307,58.307l31.19,31.19
	c1.728,1.729,4.531,1.729,6.259,0l15.356-15.357C317.083,357.77,316.77,357.549,316.49,357.269z"/>
<circle style="fill:#EFEFEF;" cx="225.11" cy="324.97" r="43.549"/>
<path style="fill:#DDDDDD;" d="M211.063,333.078c-9.638-16.693-6.958-37.108,5.204-50.75c-4.434,0.92-8.8,2.54-12.936,4.928
	c-20.829,12.026-27.966,38.66-15.94,59.489c12.026,20.829,38.66,27.966,59.489,15.94c4.136-2.388,7.722-5.359,10.735-8.739
	C239.72,357.658,220.701,349.771,211.063,333.078z"/>
<circle style="fill:#CECCCA;" cx="225.11" cy="324.97" r="12.594"/>
<path style="fill:#647892;" d="M193.307,504.254C213.37,509.305,234.369,512,256,512c0.302,0,0.602-0.01,0.904-0.012v-44.587
	h-63.598v36.853H193.307z"/>
<path style="fill:#546A82;" d="M220.307,467.401h-27v36.853c8.827,2.222,17.836,3.987,27,5.269V467.401z"/>
<path style="fill:#68C4FC;" d="M256.904,476.234h-63.597c-4.879,0-8.833-3.954-8.833-8.833s3.954-8.833,8.833-8.833h63.597
	c4.879,0,8.833,3.954,8.833,8.833S261.783,476.234,256.904,476.234z"/>
<path style="fill:#48AEF9;" d="M211.474,467.401c0-4.879,3.954-8.833,8.833-8.833h-27c-4.879,0-8.833,3.954-8.833,8.833
	s3.954,8.833,8.833,8.833h27C215.428,476.234,211.474,472.28,211.474,467.401z"/>
<g>
</g>
<g>
</g>
<g>
</g>
<g>
</g>
<g>
</g>
<g>
</g>
<g>
</g>
<g>
</g>
<g>
</g>
<g>
</g>
<g>
</g>
<g>
</g>
<g>
</g>
<g>
</g>
<g>
</g>
</svg>
