<svg xmlns="http://www.w3.org/2000/svg" xmlns:xlink="http://www.w3.org/1999/xlink">
    <defs>
        <symbol id="reactorShape" viewBox="0 0 107.5 103.6" xml:space="preserve">
           <style type="text/css">
        .st0{fill:#FFFFFF;}
    </style>
            <path class="st0" d="M30,14.9c-5,3.2-9.3,7.4-12.7,12.3c-3.4,4.9-5.8,10.5-7.1,16.3l-4.3-0.8c1.1-6.5,3.5-12.8,7-18.4
        c3.5-5.6,8.2-10.6,13.6-14.5C31.9,5.9,38.1,3,44.7,1.4c6.6-1.6,13.5-1.9,20.2-0.8l-1.4,8c-5.7-1.2-11.6-1.2-17.3-0.1
        C40.4,9.5,34.9,11.7,30,14.9z M96.7,31.7c2.5,5.4,4,11.2,4.3,17.1c0.3,5.9-0.5,11.8-2.5,17.3c-1.9,5.5-4.9,10.6-8.7,14.9l6.2,5.2
        c4.3-5.3,7.5-11.4,9.4-17.9c1.9-6.5,2.5-13.3,1.8-20c-0.7-6.7-2.7-13.2-5.8-19c-3.1-5.9-7.4-11-12.5-15.2l-2.9,3.3
        C90.5,21.5,94.2,26.4,96.7,31.7z M53.1,98.3c-5.9-0.5-11.7-2.2-17-4.8c-5.3-2.7-9.9-6.4-13.7-10.8c-3.8-4.4-6.7-9.6-8.5-15l-7.6,2.8
        c2.5,6.3,6.2,12.2,10.8,17.1c4.7,4.9,10.3,8.9,16.4,11.6c6.1,2.7,12.7,4.3,19.4,4.5c6.6,0.2,13.3-0.9,19.4-3.2l-1.4-4.1
        C65,98.1,59,98.8,53.1,98.3z M82.5,4.5c-2.3-3.4-6.9-4.2-10.3-1.9c-3.4,2.3-4.2,6.9-1.9,10.3s6.9,4.2,10.3,1.9
        C84,12.5,84.8,7.9,82.5,4.5z M89.3,88.3c-2.3-3.4-6.9-4.2-10.3-1.9s-4.2,6.9-1.9,10.3s6.9,4.2,10.3,1.9S91.6,91.7,89.3,88.3z
         M13.5,51.9c-2.3-3.4-6.9-4.2-10.3-1.9c-3.4,2.3-4.2,6.9-1.9,10.3c2.3,3.4,6.9,4.2,10.3,1.9C15,59.9,15.9,55.3,13.5,51.9z"/>
        </symbol>

        <symbol
                id="reactorIcon"
                x="0px" y="0px"
	            viewBox="0 0 41.5 40"
                >
            <style type="text/css">
                .st0{fill:#00E5BE;}
                .st1{font-family:'Ubuntu-Bold';}
                .st2{font-size:23.7686px;}
            </style>
            <text transform="matrix(1 0 0 1 11.4591 27.6752)" class="st0 st1 st2">fr</text>
            <path class="st0" d="M11.6,5.8C9.7,7,8,8.6,6.7,10.5c-1.3,1.9-2.3,4-2.8,6.3l-1.6-0.3C2.7,14,3.6,11.6,5,9.4
                c1.4-2.2,3.1-4.1,5.2-5.6c2.1-1.5,4.5-2.6,7-3.2c2.5-0.6,5.2-0.7,7.8-0.3l-0.5,3.1c-2.2-0.4-4.5-0.5-6.7-0.1
                C15.6,3.7,13.5,4.5,11.6,5.8z M37.3,12.2c1,2.1,1.5,4.3,1.7,6.6c0.1,2.3-0.2,4.6-0.9,6.7c-0.7,2.1-1.9,4.1-3.4,5.8l2.4,2
                c1.6-2.1,2.9-4.4,3.6-6.9c0.7-2.5,1-5.1,0.7-7.7c-0.3-2.6-1-5.1-2.2-7.3c-1.2-2.3-2.9-4.3-4.8-5.9l-1.1,1.3
                C34.9,8.3,36.3,10.2,37.3,12.2z M20.5,38c-2.3-0.2-4.5-0.8-6.6-1.9c-2-1-3.8-2.5-5.3-4.2c-1.5-1.7-2.6-3.7-3.3-5.8l-2.9,1.1
                c1,2.4,2.4,4.7,4.2,6.6c1.8,1.9,4,3.4,6.3,4.5c2.4,1.1,4.9,1.7,7.5,1.7c2.6,0.1,5.1-0.3,7.5-1.2l-0.5-1.6
                C25.1,37.9,22.8,38.1,20.5,38z M31.9,1.7c-0.9-1.3-2.7-1.6-4-0.7c-1.3,0.9-1.6,2.7-0.7,4s2.7,1.6,4,0.7C32.4,4.8,32.8,3,31.9,1.7z
                M34.5,34.1c-0.9-1.3-2.7-1.6-4-0.7c-1.3,0.9-1.6,2.7-0.7,4c0.9,1.3,2.7,1.6,4,0.7C35,37.2,35.4,35.4,34.5,34.1z M5.2,20
                c-0.9-1.3-2.7-1.6-4-0.7c-1.3,0.9-1.6,2.7-0.7,4c0.9,1.3,2.7,1.6,4,0.7C5.8,23.1,6.1,21.3,5.2,20z"/>
        </symbol>
    </defs>
</svg>