<?xml version="1.0" encoding="utf-8"?>
<!-- Generator: Adobe Illustrator 21.1.0, SVG Export Plug-In . SVG Version: 6.00 Build 0)  -->
<svg version="1.1" id="Layer_1" xmlns="http://www.w3.org/2000/svg" xmlns:xlink="http://www.w3.org/1999/xlink" x="0px" y="0px"
	 viewBox="0 0 433.6 491.7" style="enable-background:new 0 0 433.6 491.7;" xml:space="preserve">
<style type="text/css">
	.st0{fill:#2062AF;}
	.st1{fill:#3C9CD7;}
	.st2{fill:#FFFFFF;}
	.st3{clip-path:url(#SVGID_6_);fill:#E8E7E6;}
	.st4{clip-path:url(#SVGID_6_);fill:#E9E8E6;}
	.st5{clip-path:url(#SVGID_6_);fill:#E9E8E7;}
	.st6{clip-path:url(#SVGID_6_);fill:#EAE9E7;}
	.st7{clip-path:url(#SVGID_6_);fill:#EAE9E8;}
	.st8{clip-path:url(#SVGID_6_);fill:#EBEAE8;}
	.st9{clip-path:url(#SVGID_6_);fill:#EBEBE9;}
	.st10{clip-path:url(#SVGID_6_);fill:#ECEBEA;}
	.st11{clip-path:url(#SVGID_6_);fill:#EDECEB;}
	.st12{clip-path:url(#SVGID_6_);fill:#EEEDEB;}
	.st13{clip-path:url(#SVGID_6_);fill:#EEEDEC;}
	.st14{clip-path:url(#SVGID_6_);fill:#EFEEEC;}
	.st15{clip-path:url(#SVGID_6_);fill:#EFEEED;}
	.st16{clip-path:url(#SVGID_6_);fill:#EFEFED;}
	.st17{clip-path:url(#SVGID_6_);fill:#F0EFED;}
	.st18{clip-path:url(#SVGID_6_);fill:#F0EFEE;}
	.st19{clip-path:url(#SVGID_6_);fill:#F1F0EF;}
	.st20{clip-path:url(#SVGID_6_);fill:#F2F1EF;}
	.st21{clip-path:url(#SVGID_6_);fill:#F2F1F0;}
	.st22{clip-path:url(#SVGID_6_);fill:#F2F1F1;}
	.st23{clip-path:url(#SVGID_6_);fill:#F3F2F1;}
	.st24{clip-path:url(#SVGID_6_);fill:#F3F3F1;}
	.st25{clip-path:url(#SVGID_6_);fill:#F3F3F2;}
	.st26{clip-path:url(#SVGID_6_);fill:#F4F3F2;}
	.st27{clip-path:url(#SVGID_6_);fill:#F5F5F4;}
	.st28{clip-path:url(#SVGID_6_);fill:#F6F5F4;}
	.st29{clip-path:url(#SVGID_6_);fill:#F6F5F5;}
	.st30{clip-path:url(#SVGID_6_);fill:#F6F6F5;}
	.st31{clip-path:url(#SVGID_6_);fill:#F7F6F5;}
	.st32{clip-path:url(#SVGID_6_);fill:#F7F7F6;}
	.st33{clip-path:url(#SVGID_6_);fill:#F7F8F7;}
	.st34{clip-path:url(#SVGID_6_);fill:#F9F8F7;}
	.st35{clip-path:url(#SVGID_6_);fill:#F8F8F8;}
	.st36{clip-path:url(#SVGID_6_);fill:#FAFAF9;}
	.st37{clip-path:url(#SVGID_6_);fill:#FAFAFA;}
	.st38{clip-path:url(#SVGID_6_);fill:#FBFBFA;}
	.st39{clip-path:url(#SVGID_6_);fill:#FBFCFB;}
	.st40{clip-path:url(#SVGID_6_);fill:#FBFCFC;}
	.st41{clip-path:url(#SVGID_6_);fill:#FDFDFC;}
	.st42{clip-path:url(#SVGID_6_);fill:#FDFEFD;}
	.st43{clip-path:url(#SVGID_6_);fill:#FDFEFF;}
	.st44{clip-path:url(#SVGID_6_);fill:#FFFFFF;}
	.st45{fill:#2E61A9;}
	.st46{clip-path:url(#SVGID_10_);fill:#DEDEDD;}
	.st47{clip-path:url(#SVGID_10_);fill:#DFDEDD;}
	.st48{clip-path:url(#SVGID_10_);fill:#DFDFDE;}
	.st49{clip-path:url(#SVGID_10_);fill:#E0DFDE;}
	.st50{clip-path:url(#SVGID_10_);fill:#E0E0DF;}
	.st51{clip-path:url(#SVGID_10_);fill:#E1E1DF;}
	.st52{clip-path:url(#SVGID_10_);fill:#E1E1E0;}
	.st53{clip-path:url(#SVGID_10_);fill:#E2E1E0;}
	.st54{clip-path:url(#SVGID_10_);fill:#E2E2E0;}
	.st55{clip-path:url(#SVGID_10_);fill:#E2E2E1;}
	.st56{clip-path:url(#SVGID_10_);fill:#E3E2E1;}
	.st57{clip-path:url(#SVGID_10_);fill:#E3E3E1;}
	.st58{clip-path:url(#SVGID_10_);fill:#E3E3E2;}
	.st59{clip-path:url(#SVGID_10_);fill:#E4E3E2;}
	.st60{clip-path:url(#SVGID_10_);fill:#E4E3E3;}
	.st61{clip-path:url(#SVGID_10_);fill:#E4E4E3;}
	.st62{clip-path:url(#SVGID_10_);fill:#E5E4E3;}
	.st63{clip-path:url(#SVGID_10_);fill:#E4E4E4;}
	.st64{clip-path:url(#SVGID_10_);fill:#E5E5E4;}
	.st65{clip-path:url(#SVGID_10_);fill:#E6E6E5;}
	.st66{clip-path:url(#SVGID_10_);fill:#E5E6E5;}
	.st67{clip-path:url(#SVGID_10_);fill:#E6E7E6;}
	.st68{clip-path:url(#SVGID_12_);fill:#DEDEDD;}
	.st69{clip-path:url(#SVGID_12_);fill:#DFDEDD;}
	.st70{clip-path:url(#SVGID_12_);fill:#DFDFDE;}
	.st71{clip-path:url(#SVGID_12_);fill:#E0DFDE;}
	.st72{clip-path:url(#SVGID_12_);fill:#E0E0DF;}
	.st73{clip-path:url(#SVGID_12_);fill:#E1E1DF;}
	.st74{clip-path:url(#SVGID_12_);fill:#E1E1E0;}
	.st75{clip-path:url(#SVGID_12_);fill:#E2E1E0;}
	.st76{clip-path:url(#SVGID_12_);fill:#E2E2E0;}
	.st77{clip-path:url(#SVGID_12_);fill:#E2E2E1;}
	.st78{clip-path:url(#SVGID_12_);fill:#E3E2E1;}
	.st79{clip-path:url(#SVGID_12_);fill:#E3E3E1;}
	.st80{clip-path:url(#SVGID_12_);fill:#E3E3E2;}
	.st81{clip-path:url(#SVGID_12_);fill:#E4E3E2;}
	.st82{clip-path:url(#SVGID_12_);fill:#E4E3E3;}
	.st83{clip-path:url(#SVGID_12_);fill:#E4E4E3;}
	.st84{clip-path:url(#SVGID_12_);fill:#E5E4E3;}
	.st85{clip-path:url(#SVGID_12_);fill:#E4E4E4;}
	.st86{clip-path:url(#SVGID_12_);fill:#E5E5E4;}
	.st87{clip-path:url(#SVGID_12_);fill:#E6E6E5;}
	.st88{clip-path:url(#SVGID_12_);fill:#E5E6E5;}
	.st89{clip-path:url(#SVGID_12_);fill:#E6E7E6;}
	.st90{clip-path:url(#SVGID_14_);fill:#E8E7E6;}
	.st91{clip-path:url(#SVGID_14_);fill:#E9E8E6;}
	.st92{clip-path:url(#SVGID_14_);fill:#E9E8E7;}
	.st93{clip-path:url(#SVGID_14_);fill:#EAE9E7;}
	.st94{clip-path:url(#SVGID_14_);fill:#EAE9E8;}
	.st95{clip-path:url(#SVGID_14_);fill:#EBEAE8;}
	.st96{clip-path:url(#SVGID_14_);fill:#EBEBE9;}
	.st97{clip-path:url(#SVGID_14_);fill:#ECEBEA;}
	.st98{clip-path:url(#SVGID_14_);fill:#EDECEB;}
	.st99{clip-path:url(#SVGID_14_);fill:#EEEDEB;}
	.st100{clip-path:url(#SVGID_14_);fill:#EEEDEC;}
	.st101{clip-path:url(#SVGID_14_);fill:#EFEEEC;}
	.st102{clip-path:url(#SVGID_14_);fill:#EFEEED;}
	.st103{clip-path:url(#SVGID_14_);fill:#EFEFED;}
	.st104{clip-path:url(#SVGID_14_);fill:#F0EFED;}
	.st105{clip-path:url(#SVGID_14_);fill:#F0EFEE;}
	.st106{clip-path:url(#SVGID_14_);fill:#F1F0EF;}
	.st107{clip-path:url(#SVGID_14_);fill:#F2F1EF;}
	.st108{clip-path:url(#SVGID_14_);fill:#F2F1F0;}
	.st109{clip-path:url(#SVGID_14_);fill:#F2F1F1;}
	.st110{clip-path:url(#SVGID_14_);fill:#F3F2F1;}
	.st111{clip-path:url(#SVGID_14_);fill:#F3F3F1;}
	.st112{clip-path:url(#SVGID_14_);fill:#F3F3F2;}
	.st113{clip-path:url(#SVGID_14_);fill:#F4F3F2;}
	.st114{clip-path:url(#SVGID_14_);fill:#F5F5F4;}
	.st115{clip-path:url(#SVGID_14_);fill:#F6F5F4;}
	.st116{clip-path:url(#SVGID_14_);fill:#F6F5F5;}
	.st117{clip-path:url(#SVGID_14_);fill:#F6F6F5;}
	.st118{clip-path:url(#SVGID_14_);fill:#F7F6F5;}
	.st119{clip-path:url(#SVGID_14_);fill:#F7F7F6;}
	.st120{clip-path:url(#SVGID_14_);fill:#F7F8F7;}
	.st121{clip-path:url(#SVGID_14_);fill:#F9F8F7;}
	.st122{clip-path:url(#SVGID_14_);fill:#F8F8F8;}
	.st123{clip-path:url(#SVGID_14_);fill:#FAFAF9;}
	.st124{clip-path:url(#SVGID_14_);fill:#FAFAFA;}
	.st125{clip-path:url(#SVGID_14_);fill:#FBFBFA;}
	.st126{clip-path:url(#SVGID_14_);fill:#FBFCFB;}
	.st127{clip-path:url(#SVGID_14_);fill:#FBFCFC;}
	.st128{clip-path:url(#SVGID_14_);fill:#FDFDFC;}
	.st129{clip-path:url(#SVGID_14_);fill:#FDFEFD;}
	.st130{clip-path:url(#SVGID_14_);fill:#FDFEFF;}
	.st131{clip-path:url(#SVGID_14_);fill:#FFFFFF;}
	.st132{clip-path:url(#SVGID_16_);fill:#DEDEDD;}
	.st133{clip-path:url(#SVGID_16_);fill:#DFDEDD;}
	.st134{clip-path:url(#SVGID_16_);fill:#DFDFDE;}
	.st135{clip-path:url(#SVGID_16_);fill:#E0DFDE;}
	.st136{clip-path:url(#SVGID_16_);fill:#E0E0DF;}
	.st137{clip-path:url(#SVGID_16_);fill:#E1E1DF;}
	.st138{clip-path:url(#SVGID_16_);fill:#E1E1E0;}
	.st139{clip-path:url(#SVGID_16_);fill:#E2E1E0;}
	.st140{clip-path:url(#SVGID_16_);fill:#E2E2E0;}
	.st141{clip-path:url(#SVGID_16_);fill:#E2E2E1;}
	.st142{clip-path:url(#SVGID_16_);fill:#E3E2E1;}
	.st143{clip-path:url(#SVGID_16_);fill:#E3E3E1;}
	.st144{clip-path:url(#SVGID_16_);fill:#E3E3E2;}
	.st145{clip-path:url(#SVGID_16_);fill:#E4E3E2;}
	.st146{clip-path:url(#SVGID_16_);fill:#E4E3E3;}
	.st147{clip-path:url(#SVGID_16_);fill:#E4E4E3;}
	.st148{clip-path:url(#SVGID_16_);fill:#E5E4E3;}
	.st149{clip-path:url(#SVGID_16_);fill:#E4E4E4;}
	.st150{clip-path:url(#SVGID_16_);fill:#E5E5E4;}
	.st151{clip-path:url(#SVGID_16_);fill:#E6E6E5;}
	.st152{clip-path:url(#SVGID_16_);fill:#E5E6E5;}
	.st153{clip-path:url(#SVGID_16_);fill:#E6E7E6;}
</style>
<g>
	<polyline class="st0" points="392.9,442.3 216.8,489.8 40.6,442.3 0,2 433.6,2 392.9,442.3 	"/>
	<polyline class="st1" points="216.8,37.6 216.8,451.9 217.2,452 359.7,413.7 392.6,37.6 216.8,37.6 	"/>
	<polyline class="st2" points="216.6,147.7 90.6,200.3 94.7,252.2 216.6,200.1 346.3,144.7 351.7,91.5 216.6,147.7 	"/>
	<g>
		<defs>
			<polyline id="SVGID_1_" points="216.3,200.3 90.8,200.3 90.6,200.3 216.6,147.7 216.6,200.1 216.3,200.3 			"/>
		</defs>
		<clipPath id="SVGID_2_">
			<use xlink:href="#SVGID_1_"  style="overflow:visible;"/>
		</clipPath>
		<g style="clip-path:url(#SVGID_2_);">
			
				<image style="overflow:visible;" width="206" height="87" xlink:href="A922C989.jpg"  transform="matrix(0.621 0 0 0.625 89.4986 146.6413)">
			</image>
		</g>
	</g>
	<g>
		<defs>
			<polyline id="SVGID_3_" points="216.6,200.1 216.6,147.7 224,144.7 346.3,144.7 216.8,200.1 216.6,200.1 			"/>
		</defs>
		<clipPath id="SVGID_4_">
			<use xlink:href="#SVGID_3_"  style="overflow:visible;"/>
		</clipPath>
		<g transform="matrix(1 0 0 1 0 0)" style="clip-path:url(#SVGID_4_);">
			
				<image style="overflow:visible;" width="212" height="92" xlink:href="A922C98B.jpg"  transform="matrix(0.621 0 0 0.6248 215.5027 143.5378)">
			</image>
		</g>
	</g>
	<g>
		<defs>
			<path id="SVGID_5_" d="M216.8,397.4L216.8,397.4l-0.2-0.1v-58l0.2,0l61-17.2l4.2-69.3l-65.2-0.2h-0.2v-52.4H90.8h125.6h0.5h124.9
				l-14.3,164.9L216.8,397.4 M216,339.5l-59.2-14.9l-3.6-43H98.5h55l3.6,43L216,339.5L216,339.5"/>
		</defs>
		<clipPath id="SVGID_6_">
			<use xlink:href="#SVGID_5_"  style="overflow:visible;"/>
		</clipPath>
		<rect x="90.8" y="200.3" class="st3" width="5.9" height="197.2"/>
		<rect x="96.6" y="200.3" class="st4" width="6.9" height="197.2"/>
		<rect x="103.5" y="200.3" class="st5" width="4.9" height="197.2"/>
		<rect x="108.4" y="200.3" class="st6" width="3.9" height="197.2"/>
		<rect x="112.3" y="200.3" class="st7" width="4.9" height="197.2"/>
		<rect x="117.2" y="200.3" class="st7" width="3.9" height="197.2"/>
		<rect x="121.1" y="200.3" class="st8" width="7.8" height="197.2"/>
		<rect x="129" y="200.3" class="st9" width="2" height="197.2"/>
		<rect x="130.9" y="200.3" class="st9" width="2" height="197.2"/>
		<rect x="132.9" y="200.3" class="st10" width="12.7" height="197.2"/>
		<rect x="145.7" y="200.3" class="st11" width="11.8" height="197.2"/>
		<rect x="157.4" y="200.3" class="st12" width="2" height="197.2"/>
		<rect x="159.4" y="200.3" class="st13" width="2" height="197.2"/>
		<rect x="161.3" y="200.3" class="st13" width="8.8" height="197.2"/>
		<rect x="170.2" y="200.3" class="st14" width="2.9" height="197.2"/>
		<rect x="173.1" y="200.3" class="st15" width="4.9" height="197.2"/>
		<rect x="178" y="200.3" class="st16" width="3.9" height="197.2"/>
		<rect x="181.9" y="200.3" class="st17" width="5.9" height="197.2"/>
		<rect x="187.8" y="200.3" class="st18" width="6.9" height="197.2"/>
		<rect x="194.7" y="200.3" class="st19" width="6.9" height="197.2"/>
		<rect x="201.5" y="200.3" class="st19" width="4.9" height="197.2"/>
		<rect x="206.4" y="200.3" class="st20" width="4.9" height="197.2"/>
		<rect x="211.3" y="200.3" class="st21" width="3.9" height="197.2"/>
		<rect x="215.3" y="200.3" class="st22" width="3.9" height="197.2"/>
		<rect x="219.2" y="200.3" class="st23" width="7.8" height="197.2"/>
		<rect x="227" y="200.3" class="st24" width="2.9" height="197.2"/>
		<rect x="230" y="200.3" class="st25" width="2" height="197.2"/>
		<rect x="231.9" y="200.3" class="st26" width="11.8" height="197.2"/>
		<rect x="243.7" y="200.3" class="st27" width="12.7" height="197.2"/>
		<rect x="256.4" y="200.3" class="st28" width="1" height="197.2"/>
		<rect x="257.4" y="200.3" class="st29" width="2.9" height="197.2"/>
		<rect x="260.3" y="200.3" class="st30" width="7.8" height="197.2"/>
		<rect x="268.2" y="200.3" class="st31" width="3.9" height="197.2"/>
		<rect x="272.1" y="200.3" class="st32" width="4.9" height="197.2"/>
		<rect x="277" y="200.3" class="st33" width="3.9" height="197.2"/>
		<rect x="280.9" y="200.3" class="st34" width="4.9" height="197.2"/>
		<rect x="285.8" y="200.3" class="st35" width="6.9" height="197.2"/>
		<rect x="292.7" y="200.3" class="st36" width="6.9" height="197.2"/>
		<rect x="299.6" y="200.3" class="st37" width="5.9" height="197.2"/>
		<rect x="305.4" y="200.3" class="st38" width="3.9" height="197.2"/>
		<rect x="309.4" y="200.3" class="st39" width="4.9" height="197.2"/>
		<rect x="314.3" y="200.3" class="st40" width="2.9" height="197.2"/>
		<rect x="317.2" y="200.3" class="st41" width="8.8" height="197.2"/>
		<rect x="326" y="200.3" class="st42" width="2" height="197.2"/>
		<rect x="328" y="200.3" class="st43" width="2" height="197.2"/>
		<rect x="329.9" y="200.3" class="st44" width="11.8" height="197.2"/>
	</g>
	<polyline class="st45" points="216.6,252.6 94.7,252.2 90.6,200.3 94.7,252.2 94.9,252.2 94.9,252.2 216.6,252.6 216.6,252.6 	"/>
	<g>
		<defs>
			<polyline id="SVGID_7_" points="94.7,252.2 90.6,200.3 90.8,200.3 94.9,252.2 94.7,252.2 			"/>
		</defs>
		<clipPath id="SVGID_8_">
			<use xlink:href="#SVGID_7_"  style="overflow:visible;"/>
		</clipPath>
		<g transform="matrix(1 0 0 1 0 0)" style="clip-path:url(#SVGID_8_);">
			
				<image style="overflow:visible;" width="10" height="87" xlink:href="A922C98E.jpg"  transform="matrix(0.6269 0 0 0.625 89.4986 198.781)">
			</image>
		</g>
	</g>
	<g>
		<defs>
			<polyline id="SVGID_9_" points="216.6,252.6 94.9,252.2 94.9,252.2 90.8,200.3 216.6,200.3 216.6,252.6 			"/>
		</defs>
		<clipPath id="SVGID_10_">
			<use xlink:href="#SVGID_9_"  style="overflow:visible;"/>
		</clipPath>
		<rect x="90.8" y="200.3" class="st46" width="13.7" height="52.4"/>
		<rect x="104.5" y="200.3" class="st47" width="2" height="52.4"/>
		<rect x="106.4" y="200.3" class="st47" width="2.9" height="52.4"/>
		<rect x="109.4" y="200.3" class="st48" width="7.8" height="52.4"/>
		<rect x="117.2" y="200.3" class="st49" width="3.9" height="52.4"/>
		<rect x="121.1" y="200.3" class="st50" width="5.9" height="52.4"/>
		<rect x="127" y="200.3" class="st50" width="3.9" height="52.4"/>
		<rect x="130.9" y="200.3" class="st51" width="4.9" height="52.4"/>
		<rect x="135.8" y="200.3" class="st52" width="7.8" height="52.4"/>
		<rect x="143.7" y="200.3" class="st53" width="1" height="52.4"/>
		<rect x="144.7" y="200.3" class="st54" width="5.9" height="52.4"/>
		<rect x="150.6" y="200.3" class="st55" width="6.9" height="52.4"/>
		<rect x="157.4" y="200.3" class="st56" width="5.9" height="52.4"/>
		<rect x="163.3" y="200.3" class="st57" width="2" height="52.4"/>
		<rect x="165.3" y="200.3" class="st58" width="4.9" height="52.4"/>
		<rect x="170.2" y="200.3" class="st59" width="9.8" height="52.4"/>
		<rect x="180" y="200.3" class="st60" width="1" height="52.4"/>
		<rect x="180.9" y="200.3" class="st61" width="2.9" height="52.4"/>
		<rect x="183.9" y="200.3" class="st62" width="10.8" height="52.4"/>
		<rect x="194.7" y="200.3" class="st63" width="2" height="52.4"/>
		<rect x="196.6" y="200.3" class="st64" width="2" height="52.4"/>
		<rect x="198.6" y="200.3" class="st65" width="10.8" height="52.4"/>
		<rect x="209.4" y="200.3" class="st66" width="1" height="52.4"/>
		<rect x="210.3" y="200.3" class="st65" width="5.9" height="52.4"/>
		<rect x="216.2" y="200.3" class="st67" width="1" height="52.4"/>
	</g>
	<path class="st45" d="M216.6,397.4l-111.1-32.9l-7.2-83.1h0.2l7.2,83.1L216.6,397.4L216.6,397.4 M216.2,339.5l-0.1,0l0.5-0.1v0.1
		L216.2,339.5"/>
	<g>
		<defs>
			<polyline id="SVGID_11_" points="216.6,397.4 105.7,364.6 98.5,281.5 153.3,281.5 156.9,324.5 216,339.5 216.1,339.4 
				216.2,339.5 216.6,339.4 216.6,397.4 			"/>
		</defs>
		<clipPath id="SVGID_12_">
			<use xlink:href="#SVGID_11_"  style="overflow:visible;"/>
		</clipPath>
		<rect x="97.6" y="281.5" class="st68" width="6.9" height="115.9"/>
		<rect x="104.5" y="281.5" class="st69" width="2" height="115.9"/>
		<rect x="106.4" y="281.5" class="st69" width="2.9" height="115.9"/>
		<rect x="109.4" y="281.5" class="st70" width="7.8" height="115.9"/>
		<rect x="117.2" y="281.5" class="st71" width="3.9" height="115.9"/>
		<rect x="121.1" y="281.5" class="st72" width="5.9" height="115.9"/>
		<rect x="127" y="281.5" class="st72" width="3.9" height="115.9"/>
		<rect x="130.9" y="281.5" class="st73" width="4.9" height="115.9"/>
		<rect x="135.8" y="281.5" class="st74" width="7.8" height="115.9"/>
		<rect x="143.7" y="281.5" class="st75" width="1" height="115.9"/>
		<rect x="144.7" y="281.5" class="st76" width="5.9" height="115.9"/>
		<rect x="150.6" y="281.5" class="st77" width="6.9" height="115.9"/>
		<rect x="157.4" y="281.5" class="st78" width="5.9" height="115.9"/>
		<rect x="163.3" y="281.5" class="st79" width="2" height="115.9"/>
		<rect x="165.3" y="281.5" class="st80" width="4.9" height="115.9"/>
		<rect x="170.2" y="281.5" class="st81" width="9.8" height="115.9"/>
		<rect x="180" y="281.5" class="st82" width="1" height="115.9"/>
		<rect x="180.9" y="281.5" class="st83" width="2.9" height="115.9"/>
		<rect x="183.9" y="281.5" class="st84" width="10.8" height="115.9"/>
		<rect x="194.7" y="281.5" class="st85" width="2" height="115.9"/>
		<rect x="196.6" y="281.5" class="st86" width="2" height="115.9"/>
		<rect x="198.6" y="281.5" class="st87" width="10.8" height="115.9"/>
		<rect x="209.4" y="281.5" class="st88" width="1" height="115.9"/>
		<rect x="210.3" y="281.5" class="st87" width="5.9" height="115.9"/>
		<rect x="216.2" y="281.5" class="st89" width="1" height="115.9"/>
	</g>
	<g>
		<defs>
			<polyline id="SVGID_13_" points="346.3,144.7 346.3,144.7 224,144.7 216.8,144.7 216.6,144.7 216.6,91.5 79.2,91.5 216.8,91.5 
				351.7,91.5 346.3,144.7 			"/>
		</defs>
		<clipPath id="SVGID_14_">
			<use xlink:href="#SVGID_13_"  style="overflow:visible;"/>
		</clipPath>
		<rect x="79.2" y="91.5" class="st90" width="6.4" height="53.2"/>
		<rect x="85.6" y="91.5" class="st91" width="7.4" height="53.2"/>
		<rect x="93" y="91.5" class="st92" width="5.3" height="53.2"/>
		<rect x="98.4" y="91.5" class="st93" width="4.3" height="53.2"/>
		<rect x="102.6" y="91.5" class="st94" width="5.3" height="53.2"/>
		<rect x="107.9" y="91.5" class="st94" width="4.3" height="53.2"/>
		<rect x="112.2" y="91.5" class="st95" width="8.5" height="53.2"/>
		<rect x="120.7" y="91.5" class="st96" width="2.1" height="53.2"/>
		<rect x="122.8" y="91.5" class="st96" width="2.1" height="53.2"/>
		<rect x="125" y="91.5" class="st97" width="13.8" height="53.2"/>
		<rect x="138.8" y="91.5" class="st98" width="12.8" height="53.2"/>
		<rect x="151.6" y="91.5" class="st99" width="2.1" height="53.2"/>
		<rect x="153.7" y="91.5" class="st100" width="2.1" height="53.2"/>
		<rect x="155.8" y="91.5" class="st100" width="9.6" height="53.2"/>
		<rect x="165.4" y="91.5" class="st101" width="3.2" height="53.2"/>
		<rect x="168.6" y="91.5" class="st102" width="5.3" height="53.2"/>
		<rect x="173.9" y="91.5" class="st103" width="4.3" height="53.2"/>
		<rect x="178.2" y="91.5" class="st104" width="6.4" height="53.2"/>
		<rect x="184.6" y="91.5" class="st105" width="7.4" height="53.2"/>
		<rect x="192" y="91.5" class="st106" width="7.4" height="53.2"/>
		<rect x="199.5" y="91.5" class="st106" width="5.3" height="53.2"/>
		<rect x="204.8" y="91.5" class="st107" width="5.3" height="53.2"/>
		<rect x="210.1" y="91.5" class="st108" width="4.3" height="53.2"/>
		<rect x="214.4" y="91.5" class="st109" width="4.3" height="53.2"/>
		<rect x="218.6" y="91.5" class="st110" width="8.5" height="53.2"/>
		<rect x="227.1" y="91.5" class="st111" width="3.2" height="53.2"/>
		<rect x="230.3" y="91.5" class="st112" width="2.1" height="53.2"/>
		<rect x="232.5" y="91.5" class="st113" width="12.8" height="53.2"/>
		<rect x="245.2" y="91.5" class="st114" width="13.8" height="53.2"/>
		<rect x="259.1" y="91.5" class="st115" width="1.1" height="53.2"/>
		<rect x="260.1" y="91.5" class="st116" width="3.2" height="53.2"/>
		<rect x="263.3" y="91.5" class="st117" width="8.5" height="53.2"/>
		<rect x="271.8" y="91.5" class="st118" width="4.3" height="53.2"/>
		<rect x="276.1" y="91.5" class="st119" width="5.3" height="53.2"/>
		<rect x="281.4" y="91.5" class="st120" width="4.3" height="53.2"/>
		<rect x="285.7" y="91.5" class="st121" width="5.3" height="53.2"/>
		<rect x="291" y="91.5" class="st122" width="7.4" height="53.2"/>
		<rect x="298.4" y="91.5" class="st123" width="7.4" height="53.2"/>
		<rect x="305.9" y="91.5" class="st124" width="6.4" height="53.2"/>
		<rect x="312.3" y="91.5" class="st125" width="4.3" height="53.2"/>
		<rect x="316.5" y="91.5" class="st126" width="5.3" height="53.2"/>
		<rect x="321.9" y="91.5" class="st127" width="3.2" height="53.2"/>
		<rect x="325.1" y="91.5" class="st128" width="9.6" height="53.2"/>
		<rect x="334.6" y="91.5" class="st129" width="2.1" height="53.2"/>
		<rect x="336.8" y="91.5" class="st130" width="2.1" height="53.2"/>
		<rect x="338.9" y="91.5" class="st131" width="12.8" height="53.2"/>
	</g>
	<g>
		<defs>
			<polyline id="SVGID_15_" points="216.6,144.7 85.8,144.7 79.2,91.5 216.6,91.5 216.6,144.7 			"/>
		</defs>
		<clipPath id="SVGID_16_">
			<use xlink:href="#SVGID_15_"  style="overflow:visible;"/>
		</clipPath>
		<rect x="79.2" y="91.5" class="st132" width="14.9" height="53.2"/>
		<rect x="94.1" y="91.5" class="st133" width="2.1" height="53.2"/>
		<rect x="96.2" y="91.5" class="st133" width="3.2" height="53.2"/>
		<rect x="99.4" y="91.5" class="st134" width="8.5" height="53.2"/>
		<rect x="107.9" y="91.5" class="st135" width="4.3" height="53.2"/>
		<rect x="112.2" y="91.5" class="st136" width="6.4" height="53.2"/>
		<rect x="118.6" y="91.5" class="st136" width="4.3" height="53.2"/>
		<rect x="122.8" y="91.5" class="st137" width="5.3" height="53.2"/>
		<rect x="128.2" y="91.5" class="st138" width="8.5" height="53.2"/>
		<rect x="136.7" y="91.5" class="st139" width="1.1" height="53.2"/>
		<rect x="137.7" y="91.5" class="st140" width="6.4" height="53.2"/>
		<rect x="144.1" y="91.5" class="st141" width="7.4" height="53.2"/>
		<rect x="151.6" y="91.5" class="st142" width="6.4" height="53.2"/>
		<rect x="158" y="91.5" class="st143" width="2.1" height="53.2"/>
		<rect x="160.1" y="91.5" class="st144" width="5.3" height="53.2"/>
		<rect x="165.4" y="91.5" class="st145" width="10.6" height="53.2"/>
		<rect x="176.1" y="91.5" class="st146" width="1.1" height="53.2"/>
		<rect x="177.1" y="91.5" class="st147" width="3.2" height="53.2"/>
		<rect x="180.3" y="91.5" class="st148" width="11.7" height="53.2"/>
		<rect x="192" y="91.5" class="st149" width="2.1" height="53.2"/>
		<rect x="194.1" y="91.5" class="st150" width="2.1" height="53.2"/>
		<rect x="196.3" y="91.5" class="st151" width="11.7" height="53.2"/>
		<rect x="208" y="91.5" class="st152" width="1.1" height="53.2"/>
		<rect x="209" y="91.5" class="st151" width="6.4" height="53.2"/>
		<rect x="215.4" y="91.5" class="st153" width="2.1" height="53.2"/>
	</g>
</g>
</svg>
