<?xml version="1.0" encoding="utf-8"?>
<!-- Generator: Adobe Illustrator 21.1.0, SVG Export Plug-In . SVG Version: 6.00 Build 0)  -->
<svg version="1.1" id="Capa_1" xmlns="http://www.w3.org/2000/svg" xmlns:xlink="http://www.w3.org/1999/xlink" x="0px" y="0px"
	 viewBox="0 0 15 15" style="enable-background:new 0 0 15 15;" xml:space="preserve">
<style type="text/css">
	.st0{fill:#4D4D4D;}
</style>
<g>
	<path class="st0" d="M7,14.8C3.3,14.5,0.4,11.6,0.2,8l0-1C0.5,3.4,3.4,0.5,7,0.2l1,0c3.7,0.3,6.6,3.2,6.8,6.8v1
		c-0.3,3.7-3.2,6.6-6.8,6.8H7z M8,10.8c-0.1,0-0.2,0.1-0.2,0.2v2.9c0,0.1,0,0.1,0.1,0.2c0,0,0.1,0,0.1,0c0,0,0,0,0,0
		c1.1-0.2,2-1.3,2.6-3c0-0.1,0-0.1,0-0.2c0-0.1-0.1-0.1-0.2-0.1H8z M4.6,10.8c-0.1,0-0.1,0-0.2,0.1c0,0.1,0,0.1,0,0.2
		c0.5,1.6,1.5,2.7,2.5,3c0,0,0,0,0.1,0c0,0,0.1,0,0.1,0c0.1,0,0.1-0.1,0.1-0.2V11c0-0.1-0.1-0.2-0.2-0.2H4.6z M11.5,10.8
		c-0.1,0-0.2,0.1-0.2,0.1c-0.3,1-0.7,1.8-1.2,2.3c-0.1,0.1-0.1,0.2,0,0.3c0,0,0.1,0.1,0.2,0.1c0,0,0.1,0,0.1,0
		c1.1-0.6,2.1-1.4,2.8-2.5c0-0.1,0-0.1,0-0.2c0-0.1-0.1-0.1-0.2-0.1H11.5z M2,10.8c-0.1,0-0.1,0-0.2,0.1c0,0.1,0,0.1,0,0.2
		c0.7,1,1.6,1.8,2.8,2.5c0,0,0.1,0,0.1,0c0.1,0,0.1,0,0.1-0.1c0.1-0.1,0.1-0.2,0-0.2c-0.5-0.7-0.9-1.5-1.2-2.3
		c0-0.1-0.1-0.1-0.2-0.1H2z M12,7.8c-0.1,0-0.2,0.1-0.2,0.2c0,0.7-0.1,1.4-0.3,1.9c0,0.1,0,0.1,0,0.2c0,0.1,0.1,0.1,0.2,0.1h1.8
		c0.1,0,0.1,0,0.2-0.1C14,9.5,14.1,8.7,14.2,8c0-0.1,0-0.1,0-0.2c0,0-0.1-0.1-0.2-0.1H12z M8,7.8C7.9,7.8,7.8,7.9,7.8,8v2
		c0,0.1,0.1,0.2,0.2,0.2h2.7c0.1,0,0.2-0.1,0.2-0.1c0.2-0.6,0.3-1.3,0.3-2.1c0-0.1-0.1-0.2-0.2-0.2H8z M4,7.8C3.9,7.8,3.8,7.9,3.8,8
		c0,0.7,0.1,1.5,0.3,2.1c0,0.1,0.1,0.1,0.2,0.1H7c0.1,0,0.2-0.1,0.2-0.2V8c0-0.1-0.1-0.2-0.2-0.2H4z M1,7.8c-0.1,0-0.1,0-0.2,0.1
		c0,0-0.1,0.1,0,0.2C0.9,8.7,1,9.5,1.3,10.1c0,0.1,0.1,0.1,0.2,0.1h1.7c0.1,0,0.1,0,0.2-0.1c0,0,0.1-0.1,0-0.2
		C3.3,9.4,3.2,8.7,3.2,8c0-0.1-0.1-0.2-0.2-0.2H1z M11.8,4.8c-0.1,0-0.1,0-0.2,0.1S11.6,5,11.6,5c0.1,0.6,0.2,1.3,0.2,2
		c0,0.1,0.1,0.2,0.2,0.2h2.1c0.1,0,0.1,0,0.2-0.1c0,0,0.1-0.1,0-0.2c-0.1-0.7-0.2-1.4-0.5-2.1c0-0.1-0.1-0.1-0.2-0.1H11.8z M8,4.8
		C7.9,4.8,7.8,4.9,7.8,5v2c0,0.1,0.1,0.2,0.2,0.2h3c0.1,0,0.2-0.1,0.2-0.2c0-0.7-0.1-1.5-0.3-2.1c0-0.1-0.1-0.1-0.2-0.1H8z M4.3,4.8
		c-0.1,0-0.2,0.1-0.2,0.1C3.9,5.5,3.8,6.3,3.8,7c0,0.1,0.1,0.2,0.2,0.2h3c0.1,0,0.2-0.1,0.2-0.2V5c0-0.1-0.1-0.2-0.2-0.2H4.3z
		 M1.5,4.8c-0.1,0-0.1,0-0.2,0.1C1,5.5,0.9,6.3,0.8,7c0,0.1,0,0.1,0,0.2c0,0,0.1,0.1,0.2,0.1h2c0.1,0,0.2-0.1,0.2-0.2
		c0-0.7,0.1-1.4,0.3-1.9c0-0.1,0-0.1,0-0.2c0-0.1-0.1-0.1-0.2-0.1H1.5z M10.3,1.4c-0.1,0-0.1,0-0.1,0.1c-0.1,0.1-0.1,0.2,0,0.2
		c0.5,0.7,0.9,1.5,1.2,2.3c0,0.1,0.1,0.1,0.2,0.1H13c0.1,0,0.1,0,0.2-0.1c0-0.1,0-0.1,0-0.2C12.4,2.9,11.5,2,10.3,1.4
		C10.4,1.4,10.3,1.4,10.3,1.4z M8,0.9c0,0-0.1,0-0.1,0c0,0-0.1,0.1-0.1,0.2V4c0,0.1,0.1,0.2,0.2,0.2h2.4c0.1,0,0.1,0,0.2-0.1
		s0-0.1,0-0.2C10.1,2.3,9.1,1.1,8,0.9C8,0.9,8,0.9,8,0.9z M7,0.9c-1.1,0.2-2,1.3-2.6,3c0,0.1,0,0.1,0,0.2s0.1,0.1,0.2,0.1H7
		c0.1,0,0.2-0.1,0.2-0.2V1.1c0-0.1,0-0.1-0.1-0.2C7.1,0.9,7,0.9,7,0.9C7,0.9,7,0.9,7,0.9z M4.7,1.4C4.7,1.4,4.6,1.4,4.7,1.4
		C3.5,2,2.6,2.9,1.8,3.9c0,0.1,0,0.1,0,0.2c0,0.1,0.1,0.1,0.2,0.1h1.5c0.1,0,0.2-0.1,0.2-0.1C4,3.2,4.4,2.4,4.9,1.7
		c0.1-0.1,0-0.2,0-0.2C4.8,1.4,4.8,1.4,4.7,1.4z"/>
</g>
</svg>
