<?xml version="1.0" encoding="utf-8"?>
<!-- Generator: Adobe Illustrator 21.1.0, SVG Export Plug-In . SVG Version: 6.00 Build 0)  -->
<svg version="1.1" id="Capa_1" xmlns="http://www.w3.org/2000/svg" xmlns:xlink="http://www.w3.org/1999/xlink" x="0px" y="0px"
	 viewBox="0 0 512 512" style="enable-background:new 0 0 512 512;" xml:space="preserve">
<style type="text/css">
	.st0{fill:#4D4D4D;}
</style>
<g>
	<g>
		<g>
			<path class="st0" d="M242.6,316.1c-6.9,0-12.6-5.7-12.6-12.6v-21.3c-3.5-1.2-7-2.6-10.4-4.3L204.5,293c-2.4,2.4-5.5,3.7-8.9,3.7
				s-6.6-1.3-8.9-3.7l-18.9-18.9c-2.4-2.4-3.7-5.5-3.7-8.9s1.3-6.6,3.7-8.9l15.1-15.1c-1.7-3.4-3.1-6.9-4.3-10.4h-21.2
				c-6.9,0-12.6-5.7-12.6-12.6v-26.7c0-6.9,5.7-12.6,12.6-12.6h21.3c1.2-3.5,2.6-7,4.3-10.4l-15.1-15.1c-2.4-2.4-3.7-5.5-3.7-8.9
				s1.3-6.5,3.7-8.9l18.9-19c2.4-2.4,5.5-3.7,8.9-3.7c3.4,0,6.6,1.3,8.9,3.7l15.1,15.1c3.4-1.7,6.9-3.1,10.4-4.3v-21.3
				c0-6.9,5.7-12.6,12.6-12.6h26.7c6.9,0,12.6,5.7,12.6,12.7v21.3c3.5,1.2,7,2.6,10.4,4.3l15.1-15.1c2.4-2.4,5.5-3.7,8.9-3.7
				s6.6,1.3,8.9,3.7l18.9,18.9c2.4,2.4,3.7,5.5,3.7,8.9s-1.3,6.5-3.7,8.9l-15.1,15.1c1.7,3.4,3.1,6.9,4.3,10.4h21.2
				c6.9,0,12.6,5.7,12.6,12.6v26.7c0,6.9-5.7,12.6-12.6,12.6h-21.3c-1.2,3.5-2.6,7-4.3,10.4l15.1,15.1c2.4,2.4,3.7,5.5,3.7,8.9
				s-1.3,6.5-3.7,8.9L325.2,293c-2.4,2.4-5.5,3.7-8.9,3.7s-6.6-1.3-8.9-3.7l-15.1-15.1c-3.4,1.7-6.9,3.1-10.4,4.3v21.3
				c0,6.9-5.7,12.6-12.6,12.6H242.6z M263,297.2v-22.1c0-4.4,3-8.2,7.3-9.2c6.5-1.5,12.8-4.1,18.7-7.8c1.5-0.9,3.3-1.4,5-1.4
				c2.5,0,4.9,1,6.7,2.8l15.6,15.6l9.9-9.9l-15.6-15.6c-3.1-3.1-3.7-7.9-1.4-11.7c3.6-5.9,6.2-12.2,7.8-18.7c1-4.3,4.8-7.3,9.2-7.3
				h22.1v-14h-22.1c-4.4,0-8.2-3-9.2-7.3c-1.5-6.7-4.2-13-7.7-18.7c-2.3-3.8-1.7-8.7,1.4-11.8l15.6-15.6l-9.9-9.9l-15.6,15.6
				c-1.8,1.8-4.2,2.8-6.7,2.8c0,0,0,0,0,0c-1.8,0-3.5-0.5-5-1.4c-5.7-3.4-12-6.1-18.7-7.9c-4.3-1-7.3-4.8-7.3-9.2v-22.1h-14v22.1
				c0,4.4-3,8.2-7.3,9.2c-6.7,1.5-13,4.2-18.7,7.7c-1.6,0.9-3.3,1.4-5,1.4c-2.5,0-4.9-1-6.7-2.8l-15.6-15.6l-9.9,9.9l15.6,15.6
				c3.1,3.1,3.7,7.9,1.4,11.7c-3.6,5.9-6.2,12.1-7.8,18.7c-1,4.3-4.8,7.3-9.2,7.3h-22.1v14h22.1c4.4,0,8.2,3,9.2,7.3
				c1.5,6.5,4.1,12.8,7.8,18.7c2.3,3.8,1.7,8.7-1.4,11.8l-15.6,15.6l9.8,10l15.6-15.6c1.8-1.8,4.2-2.8,6.7-2.8c1.8,0,3.5,0.5,5,1.4
				c5.9,3.6,12.2,6.2,18.7,7.8c4.3,1,7.3,4.8,7.3,9.2v22.1H263z"/>
		</g>
		<g>
			<path class="st0" d="M256,247c-23.3,0-42.2-18.9-42.2-42.2s18.9-42.2,42.2-42.2c23.3,0,42.2,18.9,42.2,42.2S279.3,247,256,247z
				 M256,181.6c-12.8,0-23.2,10.4-23.2,23.2S243.2,228,256,228c12.8,0,23.2-10.4,23.2-23.2S268.8,181.6,256,181.6z"/>
		</g>
		<g>
			<path class="st0" d="M58.7,214.3c-5.2,0-9.5-4.3-9.5-9.5s4.3-9.5,9.5-9.5h24.9c5.2,0,9.5,4.3,9.5,9.5s-4.3,9.5-9.5,9.5H58.7z"/>
		</g>
		<g>
			<path class="st0" d="M428.4,214.3c-5.2,0-9.5-4.3-9.5-9.5s4.3-9.5,9.5-9.5h24.9c5.2,0,9.5,4.3,9.5,9.5s-4.3,9.5-9.5,9.5H428.4z"
				/>
		</g>
		<g>
			<path class="st0" d="M116.5,353.8c-2.5,0-4.9-1-6.7-2.8c-1.8-1.8-2.8-4.2-2.8-6.7c0-2.5,1-4.9,2.8-6.7l17.6-17.6
				c1.8-1.8,4.2-2.8,6.7-2.8s4.9,1,6.7,2.8c1.8,1.8,2.8,4.2,2.8,6.7c0,2.5-1,4.9-2.8,6.7L123.2,351
				C121.4,352.8,119,353.8,116.5,353.8z"/>
		</g>
		<g>
			<path class="st0" d="M377.9,92.4c-2.5,0-4.9-1-6.7-2.8c-3.7-3.7-3.7-9.7,0-13.4l17.6-17.6c1.8-1.8,4.2-2.8,6.7-2.8s4.9,1,6.7,2.8
				c1.8,1.8,2.8,4.2,2.8,6.7c0,2.5-1,4.9-2.8,6.7l-17.6,17.6C382.8,91.4,380.4,92.4,377.9,92.4z"/>
		</g>
		<g>
			<path class="st0" d="M256,41.9c-5.2,0-9.5-4.3-9.5-9.5V7.5c0-5.2,4.3-9.5,9.5-9.5s9.5,4.3,9.5,9.5v24.9
				C265.5,37.6,261.2,41.9,256,41.9z"/>
		</g>
		<g>
			<path class="st0" d="M395.5,353.8c-2.5,0-4.9-1-6.7-2.8l-17.6-17.6c-3.7-3.7-3.7-9.7,0-13.4c1.8-1.8,4.2-2.8,6.7-2.8
				c2.5,0,4.9,1,6.7,2.8l17.6,17.6c1.8,1.8,2.8,4.2,2.8,6.7c0,2.5-1,4.9-2.8,6.7C400.4,352.8,398,353.8,395.5,353.8z"/>
		</g>
		<g>
			<path class="st0" d="M134.1,92.4c-2.5,0-4.9-1-6.7-2.8L109.8,72c-1.8-1.8-2.8-4.2-2.8-6.7c0-2.5,1-4.9,2.8-6.7
				c1.8-1.8,4.2-2.8,6.7-2.8s4.9,1,6.7,2.8l17.6,17.6c3.7,3.7,3.7,9.7,0,13.4C139,91.4,136.6,92.4,134.1,92.4z"/>
		</g>
		<g>
			<path class="st0" d="M398,196.8c-4.8,0-8.9-3.7-9.4-8.4c-7.2-61.4-55-109.4-116.4-116.9c-5.2-0.6-8.9-5.4-8.2-10.6
				c0.6-4.7,4.6-8.3,9.5-8.3c0.4,0,0.8,0,1.2,0.1c33.7,4.1,65.4,19.7,89.5,43.8c24.1,24.2,39.5,56.1,43.4,89.7
				c0.6,5.1-3,9.8-8.2,10.5C398.8,196.8,398.3,196.8,398,196.8z"/>
		</g>
		<g>
			<path class="st0" d="M240.6,514c-10.9,0-19.7-8.8-19.7-19.7v-15h-21.6c-11.9,0-21.5-9.6-21.5-21.5v-10.7c0-4.2,1.3-8.4,3.7-12
				c-2.4-3.6-3.7-7.8-3.7-12v-10.7c0-8.6,5.2-16.4,13.1-19.8v-31.1c0-11.1-5.8-21.6-15-27.3c-21.6-13.3-39.8-32.2-52.5-54.4
				c-13.1-22.9-20-49-20-75.5c0-37.1,13.6-72.9,38.4-101c24.8-28,58.7-45.9,95.5-50.5c0.4,0,0.8-0.1,1.2-0.1c4.8,0,8.9,3.6,9.5,8.3
				c0.6,5.2-3.1,10-8.2,10.6C172.8,80,122.4,137,122.4,204.3c0,46.5,23.7,89.1,63.5,113.7c14.8,9.2,24,25.9,24,43.5V391h92.4v-28.9
				c0-18.2,9.2-34.8,24.7-44.6c34.1-21.5,56.6-56.6,61.6-96.4c0.6-4.7,4.6-8.3,9.5-8.3c0.4,0,0.8,0,1.2,0.1
				c5.2,0.6,8.9,5.4,8.2,10.5c-5.7,45.5-31.3,85.6-70.3,110.1c-9.9,6.2-15.9,16.9-15.9,28.5v30.6c7.9,3.3,13.1,11.1,13.1,19.8v10.7
				c0,4.2-1.3,8.4-3.7,12c2.4,3.6,3.7,7.8,3.7,12v10.7c0,11.9-9.6,21.5-21.5,21.5h-21.6v15c0,10.9-8.8,19.7-19.7,19.7H240.6z
				 M239.8,494.3c0,0.3,0.3,0.7,0.7,0.7h31c0.3,0,0.7-0.3,0.7-0.7v-2h0.1v-13h-32.5V494.3z M199.2,444.6c-1.3,0-2.5,1.2-2.5,2.5
				v10.7c0,1.3,1.2,2.5,2.5,2.5h113.6c1.3,0,2.5-1.2,2.5-2.5v-10.7c0-1.3-1.2-2.5-2.5-2.5H199.2z M199.2,409.9
				c-1.3,0-2.5,1.2-2.5,2.5v10.7c0,1.3,1.2,2.5,2.5,2.5h113.6c1.3,0,2.5-1.2,2.5-2.5v-10.7c0-1.3-1.2-2.5-2.5-2.5H199.2z"/>
		</g>
	</g>
</g>
</svg>
