<svg xmlns="http://www.w3.org/2000/svg" viewBox="0 0 433.58 491.73"><defs><style>.cls-1{fill:#e44d26;}.cls-2{fill:#f16529;}.cls-3{fill:#ebebeb;}.cls-4{fill:#fff;}</style></defs><title>Asset 1</title><g id="Layer_2" data-name="Layer 2"><g id="Layer_1-2" data-name="Layer 1"><polygon class="cls-1" points="39.46 442.57 0 0 433.58 0 394.08 442.5 216.52 491.73 39.46 442.57"/><polygon class="cls-2" points="216.79 454.1 360.26 414.33 394.02 36.19 216.79 36.19 216.79 454.1"/><polygon class="cls-3" points="216.79 200.33 144.96 200.33 140 144.75 216.79 144.75 216.79 90.47 216.6 90.47 80.68 90.47 81.98 105.03 95.32 254.61 216.79 254.61 216.79 200.33"/><polygon class="cls-3" points="216.79 341.3 216.55 341.36 156.1 325.04 152.24 281.75 122.86 281.75 97.75 281.75 105.35 366.98 216.54 397.84 216.79 397.77 216.79 341.3"/><polygon class="cls-4" points="216.6 200.33 216.6 254.61 283.44 254.61 277.14 325.01 216.6 341.35 216.6 397.82 327.88 366.98 328.69 357.81 341.45 214.91 342.77 200.33 328.15 200.33 216.6 200.33"/><polygon class="cls-4" points="216.6 90.47 216.6 124.18 216.6 144.62 216.6 144.75 347.54 144.75 347.54 144.75 347.71 144.75 348.8 132.55 351.27 105.03 352.57 90.47 216.6 90.47"/></g></g></svg>