<svg xmlns="http://www.w3.org/2000/svg" viewBox="0 0 300 69.21"><defs><style>.cls-1,.cls-3{fill:#ec2026;}.cls-2,.cls-4{fill:#014970;}.cls-2,.cls-3{fill-rule:evenodd;}</style></defs><title>Asset 1</title><g id="Layer_2" data-name="Layer 2"><g id="Layer_1-2" data-name="Layer 1"><path class="cls-1" d="M10.16,17A10.72,10.72,0,0,0,3,19.72a8.4,8.4,0,0,0-3,6.5V51.5H6.26c0-1.77,0-4.13-.12-7.09v-9.8c.12-3.54.12-5.91.12-7.09A4.49,4.49,0,0,1,7.8,24a5.57,5.57,0,0,1,3.9-1.3H21a5.57,5.57,0,0,1,3.9,1.3,4.39,4.39,0,0,1,1.54,3.31V51.5H32.6V27.28A4.14,4.14,0,0,1,34.25,24,5.47,5.47,0,0,1,38,22.68h9.45A5.1,5.1,0,0,1,51.26,24a4.49,4.49,0,0,1,1.54,3.54v24h6.26V26.22a8.4,8.4,0,0,0-3-6.5A10.5,10.5,0,0,0,48.9,17H37a9.3,9.3,0,0,0-4.49,1.3,5.71,5.71,0,0,0-3,3.07,5.9,5.9,0,0,0-3-3.19A10.1,10.1,0,0,0,22.2,17Z"/><path class="cls-1" d="M98,46.77V22.44L93.43,17H73.11a10.5,10.5,0,0,0-7.2,2.72,8.23,8.23,0,0,0-3,6.5V42.4a8.16,8.16,0,0,0,3,6.38,10.5,10.5,0,0,0,7.2,2.72H94Zm-6.26-.83H74.65a5.75,5.75,0,0,1-4-1.42A4.91,4.91,0,0,1,69.09,41V27.52a4.46,4.46,0,0,1,1.54-3.43,5.75,5.75,0,0,1,4-1.42H91.77Z"/><polygon class="cls-2" points="87.28 69.21 82.68 69.21 111.73 34.61 82.68 0 87.28 0 116.34 34.61 87.28 69.21"/><polygon class="cls-2" points="95.43 69.21 90.83 69.21 119.88 34.61 90.83 0 95.43 0 124.49 34.61 95.43 69.21"/><polygon class="cls-3" points="99.09 0 128.03 34.61 98.98 69.21 110.31 69.21 133.58 41.46 156.85 69.21 168.19 69.21 139.13 34.61 168.19 0 156.85 0 133.58 27.64 110.31 0 99.09 0"/><path class="cls-2" d="M158.62,53V17h24.8a10.8,10.8,0,0,1,7.32,2.72,8.62,8.62,0,0,1,3,6.5V42.4a8.56,8.56,0,0,1-3,6.38,10.8,10.8,0,0,1-7.32,2.72H164.88v8.15Zm24-7.09A4.37,4.37,0,0,0,186,44.53,5.21,5.21,0,0,0,187.44,41V27.52A4.49,4.49,0,0,0,185.91,24a5.57,5.57,0,0,0-3.9-1.3H164.88V45.94H182.6Z"/><path class="cls-4" d="M207.64,17a10.21,10.21,0,0,0-7.09,2.72,8.23,8.23,0,0,0-3,6.5V51.5h6.14v-24A4.49,4.49,0,0,1,205.28,24a5.66,5.66,0,0,1,3.9-1.42h14.06V17Z"/><path class="cls-4" d="M227.36,4.72v5.67h6.26V4.72Zm0,12.28V51.5h6.26V17Z"/><path class="cls-4" d="M273.78,26.22a8.4,8.4,0,0,0-3-6.5,10.5,10.5,0,0,0-7.2-2.72H248.39a10.5,10.5,0,0,0-7.2,2.72,8.4,8.4,0,0,0-3,6.5V51.5h6.14v-24A4.91,4.91,0,0,1,245.91,24a5.57,5.57,0,0,1,3.9-1.3h12.4A5.1,5.1,0,0,1,266,24a4.49,4.49,0,0,1,1.54,3.54v24h6.26Z"/><path class="cls-4" d="M278,10.39v32a8.28,8.28,0,0,0,3.07,6.38,10.21,10.21,0,0,0,7.09,2.72H300V45.94H289.13a4.37,4.37,0,0,1-3.43-1.42A5.21,5.21,0,0,1,284.29,41V22.68H300V17H284.17V10.39Z"/><path class="cls-4" d="M172.56,61.65v7.56h1.06V66.38H178a1.64,1.64,0,0,0,1.18-.59,1.37,1.37,0,0,0,.47-1.18V63.43a1.78,1.78,0,0,0-.47-1.3,2.1,2.1,0,0,0-1.18-.47h-5.43Zm1.06.94h4.13a.9.9,0,0,1,.59.24.87.87,0,0,1,.24.71v.94a.87.87,0,0,1-.24.71.9.9,0,0,1-.59.24h-4.13Zm11.1-.94v7.56h1.06V66.14h4.49c.59,0,.83.12.83.59v2.48h1.06V67c0-.47,0-.83-.24-1.06s-.35-.35-.83-.47c.47,0,.71,0,.83-.24s.24-.47.24-.94V63.07a1.15,1.15,0,0,0-.47-1.06,1.76,1.76,0,0,0-1.18-.35Zm1.06.94h4.49c.59,0,.83.24.83.59v1.3c0,.47-.24.71-.83.71h-4.49Zm13.11-.94a2.1,2.1,0,0,0-1.18.47,1.78,1.78,0,0,0-.47,1.3v4.13a1.61,1.61,0,0,0,1.65,1.65h4.61a1.61,1.61,0,0,0,1.65-1.65V63.43a1.78,1.78,0,0,0-.47-1.3,2.1,2.1,0,0,0-1.18-.47Zm.24.94h4.13a.9.9,0,0,1,.59.24.87.87,0,0,1,.24.71v3.78c0,.35,0,.47-.24.71a.9.9,0,0,1-.59.24h-4.13a.9.9,0,0,1-.59-.24c-.24-.12-.24-.35-.24-.71V63.54a.87.87,0,0,1,.24-.71.9.9,0,0,1,.59-.24Zm12.76-.94a2.1,2.1,0,0,0-1.18.47,1.78,1.78,0,0,0-.47,1.3v4.13a1.61,1.61,0,0,0,1.65,1.65h4.37a1.78,1.78,0,0,0,1.3-.47,2.1,2.1,0,0,0,.47-1.18V64.84h-3.19v.94H217v1.54a1.27,1.27,0,0,1-.24.71,1.68,1.68,0,0,1-.71.24h-3.9a.9.9,0,0,1-.59-.24c-.24-.12-.24-.35-.24-.71V63.54a.87.87,0,0,1,.24-.71.9.9,0,0,1,.59-.24h5.31v-.94Zm11.22,0v7.56h1.06V66.14h4.37c.59,0,.94.12.94.59v2.48h1.06V67a2.36,2.36,0,0,0-.24-1.06,1.9,1.9,0,0,0-.83-.47,1,1,0,0,0,.83-.24,1.53,1.53,0,0,0,.24-.94V63.07a1.15,1.15,0,0,0-.47-1.06,2,2,0,0,0-1.18-.35Zm1.06.94h4.37c.59,0,.94.24.94.59v1.3c0,.47-.35.71-.94.71h-4.37Zm13.11-.94a1.8,1.8,0,0,0-1.18.47,1.9,1.9,0,0,0-.59,1.3v4.13a1.64,1.64,0,0,0,.59,1.18,1.37,1.37,0,0,0,1.18.47h5.43v-.94h-5.2a1.68,1.68,0,0,1-.71-.24,1.27,1.27,0,0,1-.24-.71V65.79h5.2v-.94h-5.2v-1.3a.84.84,0,0,1,.94-.94h5.2v-.94Zm12.28,0a1.8,1.8,0,0,0-1.18.47,1.9,1.9,0,0,0-.59,1.3v.71a1.64,1.64,0,0,0,.59,1.18,1.37,1.37,0,0,0,1.18.47h3.78a.9.9,0,0,1,.59.24.87.87,0,0,1,.24.71v.59c0,.35,0,.47-.24.71a.9.9,0,0,1-.59.24h-5.2v.94h5.43a1.61,1.61,0,0,0,1.65-1.65V66.5a1.61,1.61,0,0,0-1.65-1.65H249.8a.84.84,0,0,1-.94-.94v-.35a.84.84,0,0,1,.94-.94h5v-.94Zm12.4,0a2.1,2.1,0,0,0-1.18.47,1.78,1.78,0,0,0-.47,1.3v.71A1.61,1.61,0,0,0,262,65.79h3.78a.84.84,0,0,1,.94.94v.59a1.27,1.27,0,0,1-.24.71,1.68,1.68,0,0,1-.71.24h-5.2v.94H266a1.37,1.37,0,0,0,1.18-.47,1.64,1.64,0,0,0,.59-1.18V66.5a1.64,1.64,0,0,0-.59-1.18,1.37,1.37,0,0,0-1.18-.47H262.2a.9.9,0,0,1-.59-.24,1,1,0,0,1-.35-.71v-.35a1,1,0,0,1,.35-.71.9.9,0,0,1,.59-.24h5v-.94Zm10.87,0h1.06v7.56h-1.06Zm6,0,3.9,7.56h1.3l3.9-7.56h-1.18l-3.43,6.61L280,61.65Zm15.59,0a2.49,2.49,0,0,0-1.18.47,1.78,1.78,0,0,0-.47,1.3v4.13a1.52,1.52,0,0,0,.47,1.18,1.69,1.69,0,0,0,1.18.47H300v-.94h-5.2a1,1,0,0,1-.71-.24,1.27,1.27,0,0,1-.24-.71V65.79h5.08v-.94h-5.08v-1.3a1.68,1.68,0,0,1,.24-.71,1,1,0,0,1,.71-.24H300v-.94Z"/></g></g></svg>