<?xml version="1.0" encoding="utf-8"?>
<!-- Generator: Adobe Illustrator 21.1.0, SVG Export Plug-In . SVG Version: 6.00 Build 0)  -->
<svg version="1.1" id="Layer_1" xmlns="http://www.w3.org/2000/svg" xmlns:xlink="http://www.w3.org/1999/xlink" x="0px" y="0px"
	 viewBox="0 0 690.4 800" style="enable-background:new 0 0 690.4 800;" xml:space="preserve">
<style type="text/css">
	.st0{fill:#A0A0A0;}
</style>
<g id="Layer_x0020_1">
	<path class="st0" d="M395.9,795.7c-16.5,2.8-33.6,4.2-50.8,4.2s-34.2-1.4-50.6-4.2c0-230.1,0-460.3,0-690.4
		c-33.8,4.8-66.3,14.7-96.9,28.9c-45.6,21.3-86.8,52.5-119.8,91.8L0,161c42.8-51,95.9-91.2,154.8-118.8S278.6,0,345.1,0
		c66.7,0,131.4,14.7,190.5,42.2C594.5,69.8,647.4,110,690.4,161l-77.8,65.1c-33.2-39.4-74.2-70.5-119.8-91.8
		c-30.5-14.3-63.3-24.1-96.9-28.9C395.9,335.5,395.9,565.6,395.9,795.7z M440.8,161.4c45.6,15.1,86.4,40.6,119.6,73.8
		c55.3,55.3,89.4,131.4,89.4,215.3c0,84-34.2,160.2-89.4,215.5c-33.2,33.2-74,58.7-119.6,73.8V629.7c17.9-9.4,34.2-21.5,48.2-35.6
		c36.6-36.8,59.3-87.4,59.3-143.7c0-56.1-22.7-106.9-59.3-143.5c-14.1-14.1-30.3-26.1-48.2-35.6V161.4z M249.4,739.7
		c-45.4-15.1-86.2-40.6-119.4-73.8c-55.3-55.3-89.4-131.4-89.4-215.5c0-83.8,34.2-160,89.4-215.3c33.2-33.2,74-58.7,119.4-73.8
		v109.9c-17.7,9.4-34,21.5-48,35.6c-36.6,36.6-59.3,87.4-59.3,143.5c0,56.3,22.7,106.9,59.3,143.7c14.1,14.1,30.3,26.1,48,35.6
		V739.7z"/>
</g>
</svg>
