<svg xmlns="http://www.w3.org/2000/svg" viewBox="0 0 23.37 26.03"><defs><style>.cls-1{fill:#6b6e74;}.cls-2{fill:#585c61;}</style></defs><title>logo-mainAsset 1</title><g id="Layer_2" data-name="Layer 2"><g id="Layer_1-2" data-name="Layer 1"><path class="cls-1" d="M19.5.92S13.6,2.29,7.12,9.17C1.37,17.17,4.87,21.79,5,22.54s8.5,8.38,15.5-1.62S19.5.92,19.5.92ZM16.4,18c-1.38,2-2.77,3-4.12,3a5.32,5.32,0,0,1-3-1.14c-.46-1-1.29-3.26,1.68-7.53A28.8,28.8,0,0,1,17.4,7.26,10.92,10.92,0,0,1,16.4,18Z"/><path class="cls-2" d="M1.91,21.58s-3.75-9.42-.75-13.5S8.83,1.17,16.16,0c0,0-9.33,4.67-11.58,9.08S1.5,15.08,1.91,21.58Z"/></g></g></svg>