<svg xmlns="http://www.w3.org/2000/svg" xmlns:xlink="http://www.w3.org/1999/xlink">
    <defs>
        <symbol id="verticalLine" viewBox="0 0 1.3 26.1">
            <path fill="currentColor" d="M0,0h1.3v26.1H0V0z"></path>
        </symbol>
        <symbol id="home" viewBox="0 0 576 512">
            <path fill="currentColor" d="M488 312.7V456c0 13.3-10.7 24-24 24H348c-6.6 0-12-5.4-12-12V356c0-6.6-5.4-12-12-12h-72c-6.6 0-12 5.4-12 12v112c0 6.6-5.4 12-12 12H112c-13.3 0-24-10.7-24-24V312.7c0-3.6 1.6-7 4.4-9.3l188-154.8c4.4-3.6 10.8-3.6 15.3 0l188 154.8c2.7 2.3 4.3 5.7 4.3 9.3zm83.6-60.9L488 182.9V44.4c0-6.6-5.4-12-12-12h-56c-6.6 0-12 5.4-12 12V117l-89.5-73.7c-17.7-14.6-43.3-14.6-61 0L4.4 251.8c-5.1 4.2-5.8 11.8-1.6 16.9l25.5 31c4.2 5.1 11.8 5.8 16.9 1.6l235.2-193.7c4.4-3.6 10.8-3.6 15.3 0l235.2 193.7c5.1 4.2 12.7 3.5 16.9-1.6l25.5-31c4.2-5.2 3.4-12.7-1.7-16.9z"></path>
        </symbol>
        <symbol id="verticalLine" viewBox="0 0 1.33 26.08">
            <title>vertical-line</title>
            <path d="M1.33,26.08H0V0H1.33Z"/>
        </symbol>
        <symbol id="folder" viewBox="0 0 17.18 12.56">
            <path fill="currentColor" d="M6.87,0H1.72A1.65,1.65,0,0,0,0,1.57V11a1.65,1.65,0,0,0,1.72,1.57H15.46A1.65,1.65,0,0,0,17.18,11V3.14a1.65,1.65,0,0,0-1.72-1.57H8.59Z"/>
        </symbol>
        <symbol id="news" viewBox="0 0 16.78 11.19">
            <path fill="currentColor" d="M16.08,0H3.26A1.4,1.4,0,0,0,1.94.93H.7a.7.7,0,0,0-.7.7V9.55a1.63,1.63,0,0,0,1.63,1.63H16.08a.7.7,0,0,0,.7-.7V.7A.7.7,0,0,0,16.08,0ZM1.4,9.55V2.33h.47V9.55a.23.23,0,0,1-.47,0Zm14,.23H3.25a1.64,1.64,0,0,0,0-.23V1.4H15.38ZM5,6.29H9a.35.35,0,0,0,.35-.35V3.15A.35.35,0,0,0,9,2.8H5a.35.35,0,0,0-.35.35v2.8A.35.35,0,0,0,5,6.29ZM5.83,4H8.16V5.13H5.83ZM4.66,8v-.7A.35.35,0,0,1,5,7H9a.35.35,0,0,1,.35.35V8A.35.35,0,0,1,9,8.39H5A.35.35,0,0,1,4.66,8Zm5.59,0v-.7A.35.35,0,0,1,10.6,7h3a.35.35,0,0,1,.35.35V8a.35.35,0,0,1-.35.35h-3A.35.35,0,0,1,10.25,8Zm0-4.19v-.7a.35.35,0,0,1,.35-.35h3a.35.35,0,0,1,.35.35v.7a.35.35,0,0,1-.35.35h-3A.35.35,0,0,1,10.25,3.84Zm0,2.1v-.7a.35.35,0,0,1,.35-.35h3a.35.35,0,0,1,.35.35v.7a.35.35,0,0,1-.35.35h-3A.35.35,0,0,1,10.25,5.94Z"/>
        </symbol>
        <symbol id="user" viewBox="0 0 15.1 17.26">
            <path fill="currentColor" d="M7.55,8.63A4.32,4.32,0,1,0,3.24,4.32,4.32,4.32,0,0,0,7.55,8.63Zm3,1.08H10a5.87,5.87,0,0,1-4.92,0H4.53A4.53,4.53,0,0,0,0,14.24v1.4a1.62,1.62,0,0,0,1.62,1.62H13.49a1.62,1.62,0,0,0,1.62-1.62v-1.4A4.53,4.53,0,0,0,10.57,9.71Z"/>
        </symbol>
        <symbol id="close" viewBox="0 0 512 512">
            <path fill="currentColor" d="M512,51.2L460.8,0L256,204.8L51.2,0L0,51.2L204.8,256L0,460.8L51.2,512L256,307.2L460.8,512l51.2-51.2L307.2,256L512,51.2z"/>
        </symbol>
        <symbol id="arrowBack" viewBox="0 0 292.9 512">
            <path fill="currentColor" d="M88.3,256L282.1,62.4c14.3-14.3,14.3-37.5,0-51.7c-14.3-14.3-37.5-14.2-51.8,0L10.7,230.1C-3.2,244-3.5,266.2,9.6,280.6 L230,501.5c7.2,7.2,16.6,10.7,25.9,10.7c9.3,0,18.8-3.5,25.9-10.7c14.3-14.3,14.3-37.5,0-51.7L88.3,256z"/>
        </symbol>
        <symbol id="arrowForward" viewBox="0 0 292.7 512">
            <path fill="currentColor" d="M204.5,256L10.7,62.3C-3.7,48-3.7,24.8,10.7,10.6s37.5-14.2,51.8,0L282.1,230c13.9,13.9,14.2,36.1,1.1,50.5L62.7,501.5 c-7.2,7.2-16.6,10.7-25.9,10.7s-18.8-3.5-25.9-10.7c-14.3-14.3-14.3-37.5,0-51.7L204.5,256z"/>
        </symbol>
        <symbol id="totalLikes" viewBox="0 0 57 57">
            <path style="fill:#F8725B" d="M28.5,0C44.2,0,57,12.8,57,28.5S44.2,57,28.5,57S0,44.2,0,28.5S12.8,0,28.5,0z"/>
	        <path style="fill:#FFFFFF" d="M28.5,36.7l-1.3-1.2c-4.6-4.2-7.7-6.9-7.7-10.3c0-2.7,2.1-4.9,4.8-4.9c0,0,0.1,0,0.1,0c1.5,0,3,0.7,4,1.9 c1-1.2,2.5-1.8,4-1.9c2.7,0,4.9,2.1,4.9,4.8c0,0,0,0.1,0,0.1c0,3.4-3,6.1-7.7,10.3L28.5,36.7z"/>
        </symbol>
        <symbol id="totalComments" viewBox="0 0 59.5 59.5">
            <path style="fill:none;stroke:#B5B6B7;stroke-width:2.5;stroke-miterlimit:10;" d="M29.8,1.3c15.7,0,28.5,12.8,28.5,28.5S45.5,58.3,29.8,58.3S1.3,45.5,1.3,29.8S14,1.3,29.8,1.3z"/>
	        <path style="fill:#FFFFFF;" d="M21.1,29.2c0,3.9,3.9,7,8.7,7c1.1,0,2.1-0.2,3.1-0.5c1.4,1,3,1.5,4.7,1.6c0.4,0,0.8-0.4,0.8-0.9 c0-0.2-0.1-0.3-0.2-0.4c-0.7-0.7-1.2-1.6-1.6-2.5c1.1-1.1,1.8-2.7,1.8-4.3c0-3.9-3.9-7-8.7-7S21.1,25.3,21.1,29.2z M32.5,29.2 c0-0.6,0.5-1.1,1.1-1.1c0.6,0,1.1,0.5,1.1,1.1c0,0.6-0.5,1.1-1.1,1.1S32.5,29.8,32.5,29.2L32.5,29.2z M28.7,29.2 c0-0.6,0.5-1.1,1.1-1.1s1.1,0.5,1.1,1.1s-0.5,1.1-1.1,1.1l0,0C29.2,30.3,28.7,29.8,28.7,29.2z M24.9,29.2c0-0.6,0.5-1.1,1.1-1.1 c0.6,0,1.1,0.5,1.1,1.1c0,0.6-0.5,1.1-1,1.1C25.4,30.3,24.9,29.8,24.9,29.2C24.9,29.2,24.9,29.2,24.9,29.2z"/>
        </symbol>
        <symbol id="bar" viewBox="0 0 448 392">
            <path fill="currentColor" d="M16,72h416c8.8,0,16-7.2,16-16V16c0-8.8-7.2-16-16-16H16C7.2,0,0,7.2,0,16v40C0,64.8,7.2,72,16,72z M16,232h416 c8.8,0,16-7.2,16-16v-40c0-8.8-7.2-16-16-16H16c-8.8,0-16,7.2-16,16v40C0,224.8,7.2,232,16,232z M16,392h416c8.8,0,16-7.2,16-16v-40 c0-8.8-7.2-16-16-16H16c-8.8,0-16,7.2-16,16v40C0,384.8,7.2,392,16,392z"/>
        </symbol>
        <symbol id="photo" viewBox="0 0 20 18">
            <path fill="currentColor" d="M10,6.8c1.8,0,3.2,1.4,3.2,3.2s-1.4,3.2-3.2,3.2S6.8,11.8,6.8,10S8.2,6.8,10,6.8z"/>
            <path fill="currentColor" d="M7,0L5.2,2H2C0.9,2,0,2.9,0,4v12c0,1.1,0.9,2,2,2h16c1.1,0,2-0.9, 2-2V4c0-1.1-0.9-2-2-2h-3.2L13,0H7z M10,15 c-2.8,0-5-2.2-5-5s2.2-5,5-5s5,2.2,5,5S12.8,15,10,15z"/>
        </symbol>
        <symbol id="video" viewBox="0 0 24 16">
            <path fill="currentColor" d="M18.7,6V1.3C18.7,0.5,18,0,17.3,0h-16C0.7,0,0,0.5,0,1.3v13.3C0,15.3,0.7,16,1.3,16h16c0.7,0,1.3-0.7,1.3-1.3V10l5.3,5.3 V0.7L18.7,6z"/>
        </symbol>
        <symbol id="arrowDown" viewBox="0 0 24 12">
            <path fill="currentColor" d="M0,0l12,12L24,0H0z"/>
        </symbol>
    </defs>
</svg>