<svg xmlns="http://www.w3.org/2000/svg" xmlns:xlink="http://www.w3.org/1999/xlink" viewBox="0 0 43 43"><defs><style>.cls-1{fill:url(#linear-gradient);}.cls-2{fill:url(#linear-gradient-2);}.cls-3{fill:url(#linear-gradient-3);}.cls-4{fill:url(#linear-gradient-4);}.cls-5{fill:url(#linear-gradient-5);}.cls-6{fill:url(#linear-gradient-6);}</style><linearGradient id="linear-gradient" x1="17.98" y1="44.83" x2="36.83" y2="3.59" gradientUnits="userSpaceOnUse"><stop offset="0" stop-color="#e18149"/><stop offset="1" stop-color="#e04a45"/></linearGradient><linearGradient id="linear-gradient-2" x1="23.14" y1="47.17" x2="41.99" y2="5.94" xlink:href="#linear-gradient"/><linearGradient id="linear-gradient-3" x1="22.8" y1="47.03" x2="41.65" y2="5.79" xlink:href="#linear-gradient"/><linearGradient id="linear-gradient-4" x1="0.96" y1="37.06" x2="19.81" y2="-4.18" xlink:href="#linear-gradient"/><linearGradient id="linear-gradient-5" x1="2.01" y1="37.53" x2="20.86" y2="-3.71" xlink:href="#linear-gradient"/><linearGradient id="linear-gradient-6" x1="6.78" y1="39.71" x2="25.63" y2="-1.54" xlink:href="#linear-gradient"/></defs><title>Asset 3</title><g id="Layer_2" data-name="Layer 2"><g id="Layer_1-2" data-name="Layer 1"><path class="cls-1" d="M42.15,15.48A21.5,21.5,0,0,0,29.9,1.74L20.64,15.48Z"/><path class="cls-2" d="M42.69,17.75H26.32L37.08,36.34A21.64,21.64,0,0,0,42.69,17.75Z"/><path class="cls-3" d="M16.59,42.43a21.45,21.45,0,0,0,18.6-4.34L27.66,24.52Z"/><path class="cls-4" d="M6.09,6.55A21,21,0,0,0,.44,25.88H16.32Z"/><path class="cls-5" d="M27.73,1A21.13,21.13,0,0,0,7.94,4.86l7.79,14.81Z"/><path class="cls-6" d="M1.18,28.53A21.89,21.89,0,0,0,14.3,41.76l8.3-13.23Z"/></g></g></svg>